<svg xmlns="http://www.w3.org/2000/svg" version="1.1" xmlns:xlink="http://www.w3.org/1999/xlink" width="1080" height="1080"><svg xmlns="http://www.w3.org/2000/svg" width="1080" height="1080" viewBox="0 0 1080 1080" version="1.1"><path d="M 496 153.013 C 488.869 155.529, 485.562 157.400, 479.717 162.225 C 477.087 164.397, 472.289 167.211, 469.056 168.478 C 456.730 173.309, 449.124 180.607, 446.107 190.500 C 444.322 196.352, 444.119 196.579, 437.888 199.711 C 430.840 203.253, 427.186 206.987, 423.466 214.446 C 420.236 220.925, 420.253 227.570, 423.519 235.500 C 424.879 238.800, 425.993 242.257, 425.995 243.183 C 426.008 247.862, 402.822 261.817, 383.500 268.759 C 372.965 272.544, 349.444 273.018, 322.412 269.990 C 306.657 268.225, 298.961 267.861, 285.503 268.245 C 266.361 268.790, 258.074 270.332, 245.609 275.667 C 218.465 287.286, 201.677 304.180, 203.338 318.207 L 203.920 323.120 197.106 329.827 C 187.827 338.960, 186.553 341.589, 186.524 351.665 C 186.502 359.293, 186.715 360.134, 189.774 364.477 L 193.047 369.125 189.442 376.421 C 185.325 384.750, 184.004 393.451, 185.957 399.369 C 186.621 401.383, 189.174 405.383, 191.629 408.260 C 195.839 413.192, 196.048 413.717, 195.297 417.495 C 194.858 419.698, 194.530 424.888, 194.567 429.028 C 194.623 435.367, 195.091 437.397, 197.533 441.884 C 202.495 450.999, 209.248 455, 219.675 455 C 228.311 455, 228.448 455.297, 228.850 474.874 C 229.562 509.527, 225.154 525.809, 207.240 554.698 C 189.454 583.381, 181.707 599.634, 174.612 623.146 C 168.080 644.794, 166.573 671.151, 171.155 683.601 C 173.038 688.718, 177.676 694.392, 183.758 699.021 C 186.387 701.022, 187.205 702.561, 187.999 707 C 188.539 710.025, 190.448 715.405, 192.241 718.956 C 196.023 726.447, 201.150 730.849, 209.764 734.003 C 215.177 735.984, 215.700 736.480, 219.057 742.801 C 225.450 754.839, 236.621 760.833, 250.484 759.661 C 257.348 759.081, 257.816 759.178, 260.100 761.657 C 263.926 765.812, 273.697 770.002, 279.500 769.977 C 288.659 769.938, 297.759 763.941, 303.149 754.391 C 307.685 746.353, 307.679 746.355, 317.746 749.473 C 322.561 750.964, 331.959 754.786, 338.630 757.966 C 370.228 773.028, 385.226 787.221, 418.446 833.500 C 427.131 845.600, 435.870 857.525, 437.865 860 C 445.348 869.282, 457.839 881.597, 467.941 889.653 C 485.035 903.284, 499.501 909.230, 516 909.408 C 523.571 909.490, 525.013 909.198, 529.197 906.739 L 533.893 903.978 539.379 906.404 C 548.062 910.244, 554.623 911.258, 562.568 909.989 C 571.480 908.565, 579.944 903.997, 585.834 897.431 C 589.725 893.093, 591.247 892.113, 595 891.525 C 601.577 890.497, 609.129 886.798, 613.189 882.617 C 617.280 878.405, 623 868.208, 623 865.127 C 623 863.618, 624.405 862.322, 628.036 860.482 C 634.572 857.170, 640.435 851.817, 643.805 846.084 C 647.403 839.965, 647.590 829.679, 644.220 823.290 C 642.999 820.974, 642.013 818.499, 642.028 817.790 C 642.078 815.519, 672.355 798.597, 686.500 792.934 C 693.992 789.935, 695.611 789.680, 712 788.922 C 721.625 788.478, 739.400 788.084, 751.500 788.049 C 763.600 788.013, 777.550 787.521, 782.500 786.956 C 822.555 782.384, 858.617 765.941, 865.944 748.909 C 867.170 746.060, 868.425 741.286, 868.733 738.301 C 869.273 733.067, 869.475 732.757, 874.435 729.585 C 881.004 725.383, 889.736 715.609, 891.006 711.037 C 891.547 709.092, 891.989 704.800, 891.989 701.500 C 891.989 695.475, 891.425 694.061, 886.297 687.249 L 884.093 684.322 888.049 679.058 C 892.970 672.509, 895.435 664.502, 894.706 657.437 C 894.027 650.866, 891.807 646.504, 886.736 641.786 C 882.748 638.074, 882.745 638.068, 883.872 633.593 C 888.817 613.955, 879.035 598.662, 859.845 596.026 C 856.355 595.546, 852.176 595.232, 850.557 595.327 L 847.614 595.500 845.354 584.500 C 843.479 575.378, 843.085 570.203, 843.047 554.192 C 842.971 523.027, 844.243 518.188, 862.286 481 C 881.398 441.610, 887.556 426.792, 893.031 407.024 C 897.722 390.087, 899.420 377.236, 898.027 369.213 C 895.932 357.135, 892.492 351.511, 882.861 344.411 C 879.253 341.752, 878.066 340.159, 877.525 337.246 C 875.236 324.935, 868.253 313.749, 860.615 310.159 C 858.116 308.985, 853.087 307.457, 849.439 306.765 C 844.820 305.889, 842.498 304.931, 841.791 303.609 C 839.502 299.333, 832.188 292.551, 827.500 290.358 C 821.639 287.617, 813.391 287.245, 807.164 289.442 L 803.076 290.884 799.996 286.995 C 795.358 281.140, 787.130 277.472, 778.951 277.614 C 774.821 277.686, 770.759 278.457, 767.951 279.702 C 762.264 282.224, 754.948 289.654, 751.327 296.584 C 747.913 303.119, 747.760 303.140, 729.648 299.472 C 688.294 291.097, 674.967 282.308, 649.609 246.686 C 621.450 207.128, 602.931 186.159, 581.500 169.565 C 571.566 161.873, 567.577 159.566, 559.797 157.012 C 552.591 154.646, 542.770 154.395, 535.114 156.380 C 529.944 157.722, 529.518 157.665, 520.146 154.390 C 509.090 150.527, 503.886 150.230, 496 153.013 M 498.500 161.897 C 496.300 162.917, 492.700 165.372, 490.500 167.354 L 486.500 170.958 490.074 174.229 C 492.040 176.028, 498.785 181.550, 505.064 186.500 C 519.560 197.928, 534.987 211.545, 537.243 214.905 C 539.392 218.103, 539.493 220.874, 537.488 221.643 C 535.697 222.330, 529.585 217.808, 515 205.003 C 494.750 187.225, 481.557 178.977, 473.443 179.022 C 464.862 179.070, 457 185.608, 457 192.697 C 457 197.654, 462.454 204.431, 472.483 211.936 C 482.978 219.790, 498.909 234.557, 503.103 240.320 C 505.799 244.023, 506.022 247, 503.604 247 C 502.953 247, 499.289 244.158, 495.461 240.684 C 491.632 237.211, 484.225 231.008, 479 226.901 C 454.009 207.255, 448.217 204.940, 438.875 210.864 C 431.872 215.306, 430 218.279, 430 224.963 C 430 232.761, 433.551 237.868, 445.834 247.729 C 460.533 259.531, 474.407 272.191, 497.542 294.914 C 521.879 318.818, 532.223 330.454, 531.793 333.443 C 531.371 336.378, 528.201 336.568, 523.400 333.945 L 519.222 331.663 501.170 340.228 C 484.427 348.172, 470.780 356.150, 467.810 359.729 C 466.783 360.966, 466.998 361.585, 469.032 363.259 C 474.121 367.445, 485.532 372.042, 493.578 373.146 C 498.087 373.766, 529.071 374.525, 565.500 374.909 L 629.500 375.583 637.014 378.676 C 654.165 385.737, 691.578 405.636, 702.091 413.290 C 707.915 417.530, 713.148 421, 713.719 421 C 714.956 421, 726.326 396.434, 731.306 383 C 734.511 374.357, 740.990 353.276, 743.908 342 C 746.153 333.328, 749.721 312.946, 749.066 312.541 C 748.702 312.316, 744.376 311.431, 739.452 310.575 C 726.393 308.305, 707.813 303.601, 697.500 299.954 C 672.769 291.209, 664.398 283.774, 638.695 247.723 C 619.404 220.666, 613.927 213.633, 603.094 202.005 C 581.843 179.193, 560.205 164, 548.968 164 C 543.791 164, 540 165.283, 540 167.036 C 540 167.567, 547.141 175.420, 555.868 184.487 C 572.581 201.850, 575.934 206.469, 573.560 208.859 C 572.706 209.719, 571.668 209.903, 570.730 209.359 C 569.915 208.886, 560.980 200.529, 550.874 190.787 C 529.035 169.735, 519.868 162.566, 512.860 161.063 C 505.980 159.588, 503.127 159.754, 498.500 161.897 M 426.491 256.147 C 415.830 263.435, 394.710 273.992, 383.500 277.637 C 372.380 281.252, 351.985 281.948, 328.694 279.505 C 308.620 277.401, 273.756 277.859, 263 280.370 C 243.928 284.822, 224.147 296.185, 217.070 306.755 C 214.088 311.208, 212.278 317.741, 213.680 318.992 C 214.131 319.395, 220.800 318.446, 228.500 316.885 C 251.544 312.211, 271.053 309.654, 274.250 310.889 C 277.675 312.211, 277.965 315.686, 274.750 316.897 C 272.526 317.734, 270.469 318.105, 246 322.079 C 220.886 326.158, 213.162 329.027, 203.853 337.735 C 195.441 345.603, 193.566 353.720, 198.923 359.077 C 202.920 363.074, 206.597 362.879, 218.677 358.033 C 229.544 353.673, 239.341 351.144, 257.380 348.043 C 272.140 345.505, 273.244 345.508, 275.582 348.090 C 277.369 350.065, 277.377 350.251, 275.738 351.450 C 274.783 352.148, 268.939 353.725, 262.751 354.955 C 244.936 358.496, 230.125 362.474, 221.704 365.979 C 207.932 371.713, 197.397 381.292, 195.548 389.764 C 194.611 394.056, 197.865 400.898, 202.007 403.345 C 205.744 405.552, 207.446 405.237, 223.409 399.380 C 238.271 393.927, 256.598 389.373, 268.975 388.058 C 279.101 386.982, 281.388 387.576, 279.378 390.762 C 278.086 392.811, 273.440 394.234, 257.441 397.485 C 226.313 403.808, 205.473 414.631, 203.427 425.537 C 202.389 431.069, 204.578 436.894, 209.461 441.596 C 216.682 448.551, 221.022 448.237, 240.339 439.363 C 262.846 429.024, 282.970 423.572, 322.603 417.077 C 349.327 412.697, 354.942 412.319, 357.883 414.703 C 359.940 416.370, 360.104 416.937, 359.079 418.853 C 358.426 420.073, 356.560 421.338, 354.933 421.663 C 352.849 422.080, 351.756 423.031, 351.237 424.878 C 350.330 428.104, 350.248 475.578, 351.148 476.480 C 351.865 477.199, 363.261 471.791, 369.500 467.771 C 381.434 460.081, 410.018 423.829, 428.499 392.943 C 445.772 364.077, 456.364 354.657, 493.891 334.783 C 500.276 331.402, 507.199 327.580, 509.275 326.290 L 513.049 323.944 496.477 306.222 C 480.416 289.047, 462.714 271.899, 453.155 264.256 C 450.595 262.209, 445.750 258.164, 442.389 255.267 C 439.028 252.370, 436.099 250, 435.880 250 C 435.662 250, 431.437 252.766, 426.491 256.147 M 773.008 287.287 C 771.087 287.915, 767.206 290.694, 764.384 293.464 C 759.648 298.112, 759.160 299.040, 758.046 305.500 C 750.521 349.154, 745.716 367.109, 733.027 399 C 720.669 430.059, 717.087 438, 715.434 438 C 712.508 438, 710.826 436.468, 707.359 430.647 C 705.346 427.266, 702.304 422.983, 700.599 421.128 C 694.377 414.360, 674.191 403, 668.386 403 L 665.727 403 666.228 412.250 C 667.267 431.469, 674.507 446.936, 702.960 490.719 C 727.131 527.913, 728.333 530.202, 731.495 545.057 C 733.031 552.272, 735.283 576.657, 736.984 604.500 C 738.490 629.134, 738.463 629, 741.896 629 C 746.167 629, 778.146 623.401, 790 620.577 C 795.775 619.202, 805.083 616.524, 810.684 614.627 C 821.090 611.102, 837.796 602.695, 838.610 600.573 C 838.859 599.925, 838.150 594.693, 837.034 588.947 C 835.292 579.972, 835.007 574.554, 835.015 550.500 C 835.021 530.101, 835.393 521.115, 836.382 517.398 C 838.132 510.828, 848.783 486.525, 860.223 463 C 880.114 422.097, 883.978 412.336, 888.155 392.429 C 890.152 382.911, 890.267 380.911, 889.272 373.028 C 887.668 360.325, 882.731 352.135, 877.307 353.179 C 874.723 353.677, 873.685 356.432, 868.557 376.401 C 863.334 396.738, 861.104 402.515, 858.109 403.465 C 852.947 405.104, 852.854 402.134, 857.555 385.830 C 868.448 348.056, 869.660 338.655, 864.817 329.500 C 860.085 320.553, 851.103 313.631, 847.705 316.314 C 846.355 317.380, 844.307 324.335, 842.495 334 C 840.415 345.101, 831.601 375.745, 830.021 377.370 C 828.249 379.194, 828.161 379.175, 826.485 376.618 C 824.849 374.121, 824.868 373.575, 826.868 365.247 C 833.788 336.433, 835.084 330.297, 835.629 323.752 C 836.483 313.488, 835.012 309.002, 828.632 302.415 C 823.510 297.127, 823.255 297, 817.770 297 C 813.147 297, 811.594 297.471, 808.991 299.661 C 804.930 303.078, 804.220 305.086, 802.923 316.826 C 801.112 333.207, 796.802 352.885, 792.864 362.750 C 790.655 368.283, 790.135 368.735, 788.200 366.800 C 786.418 365.018, 786.701 361.809, 789.902 347.485 C 793.943 329.408, 795.315 317.933, 794.816 306.395 C 794.357 295.797, 792.775 291.171, 788.729 288.605 C 785.618 286.631, 777.178 285.923, 773.008 287.287 M 455.792 371.337 C 451.226 375.352, 443.575 384.960, 441.097 389.787 C 438.147 395.538, 408.535 438.484, 400.960 448 C 393.335 457.578, 380.982 469.802, 373.500 475.173 C 368.185 478.989, 353.035 487, 351.134 487 C 350.510 487, 350.004 488.238, 350.008 489.750 C 350.024 495.083, 352.064 510.569, 353.494 516.219 C 355.821 525.407, 364.756 543.913, 378.012 567 C 399.474 604.378, 404.009 616.766, 407.114 646.500 C 407.746 652.550, 408.835 658.430, 409.534 659.567 C 410.960 661.883, 433.771 673.877, 441.521 676.384 C 455.813 681.008, 458.264 681.197, 514.500 681.994 C 562.824 682.679, 569.731 682.980, 580.212 684.856 C 592.725 687.096, 601.374 690.118, 607.626 694.433 L 611.500 697.107 617.356 690.803 C 625.102 682.466, 631.454 673.895, 638.072 662.852 C 647.694 646.798, 669.285 614.824, 678.490 603 C 694.265 582.736, 703.621 574.524, 717.177 569.044 L 724.500 566.083 724.180 560.792 C 722.986 541.021, 717.214 527.877, 694.850 493.992 C 683.331 476.540, 670.755 455.503, 665.110 444.244 C 659.297 432.647, 658.003 426.799, 657.985 412.040 C 657.976 405.143, 657.639 399.050, 657.235 398.500 C 656.131 396.998, 633.099 386.246, 628.446 385.061 C 620.367 383.003, 595.909 382.058, 549.667 382.017 C 488.792 381.963, 486.290 381.671, 467.944 372.467 L 459.388 368.175 455.792 371.337 M 326 424.645 C 324.625 424.872, 316.975 425.964, 309 427.071 C 291.853 429.452, 282.965 431.599, 265.698 437.534 C 243.747 445.079, 236.785 448.978, 236.970 453.620 C 238.111 482.158, 238.043 493.605, 236.669 504 C 233.916 524.830, 230.633 532.645, 206.836 575 C 191.365 602.537, 188.882 608.138, 182.754 629.331 C 177.531 647.394, 177.500 647.582, 177.500 661.500 C 177.500 677.090, 179.012 683.291, 183.713 686.989 C 187.952 690.323, 189.472 689.634, 190.860 683.750 C 193.778 671.376, 194.441 668.827, 198.112 655.873 C 202.959 638.771, 205.913 631, 207.567 631 C 209.403 631, 212 633.837, 212 635.842 C 212 636.776, 209.482 646.307, 206.404 657.021 C 199.600 680.703, 196.021 696.091, 196.009 701.712 C 195.998 706.856, 199.301 716.016, 202.566 719.896 C 205.872 723.825, 211.179 726.239, 214.118 725.152 C 215.989 724.460, 216.833 722.713, 218.588 715.899 C 228.379 677.898, 232.074 664.881, 234.862 658.579 C 236.579 654.698, 237.358 653.912, 239.226 654.177 C 242.612 654.658, 242.589 658.499, 239.132 669.743 C 233.876 686.837, 232.073 693.404, 229.568 704.583 C 224.866 725.566, 225.135 731.466, 231.264 741.718 C 234.804 747.639, 239.133 750, 246.448 750 C 253.558 750, 255.894 745.861, 258.020 729.500 C 259.459 718.425, 263.873 700.414, 269.048 684.500 C 273.510 670.782, 275.238 667.750, 278.347 668.193 C 281.491 668.642, 280.951 672.887, 275.534 690.338 C 273.020 698.435, 270.277 707.859, 269.439 711.280 C 267.828 717.857, 266.280 747.993, 267.336 752.204 C 267.679 753.570, 269.155 755.882, 270.616 757.343 C 272.758 759.485, 274.167 759.985, 277.886 759.924 C 282.805 759.843, 287.218 758.475, 290.735 755.941 C 293.716 753.794, 297.973 746.074, 297.988 742.790 C 298.013 737.104, 311.965 694.240, 323.472 664.500 C 326.025 657.900, 329.719 648.225, 331.680 643 C 336.876 629.155, 342.539 616.932, 345.347 613.500 C 348.615 609.506, 350.482 610.678, 353.713 618.754 C 357.580 628.420, 360.648 631.063, 388.010 648.305 C 393.077 651.498, 397.373 653.960, 397.557 653.777 C 398.225 653.108, 396.017 633.885, 394.540 627.515 C 393.705 623.916, 391.390 616.591, 389.394 611.236 C 385.372 600.442, 368.923 567.007, 360.006 551.500 C 351.954 537.498, 348.441 530.297, 345.271 521.293 L 342.526 513.500 342.013 469 L 341.500 424.500 335 424.366 C 331.425 424.292, 327.375 424.418, 326 424.645 M 715.899 578.687 C 706.710 583.284, 697.816 592.001, 685.476 608.506 C 676.862 620.027, 671.421 628.116, 644.790 669 C 634.375 684.989, 631.162 689.062, 621.120 699.008 C 607.867 712.133, 593.951 722.246, 574.250 733.068 C 566.962 737.071, 561.004 740.831, 561.010 741.423 C 561.048 745.734, 592.562 779.559, 609.439 793.405 C 620.554 802.524, 629.006 808.550, 632.027 809.509 C 633.410 809.947, 638.911 807.399, 650.387 801.003 C 666.796 791.858, 681.538 785.397, 692.528 782.535 C 703.638 779.641, 715.486 778.896, 747.945 779.050 C 779.270 779.198, 780.956 779.108, 792.566 776.668 C 807.606 773.506, 825.323 767.842, 834.500 763.261 C 842.903 759.066, 853.067 752.001, 855.925 748.368 C 858.413 745.205, 858.724 739.215, 856.446 738.341 C 854.674 737.661, 845.052 739.570, 830.500 743.490 C 823.177 745.462, 817.823 746.225, 810.500 746.342 C 800.970 746.493, 800.486 746.399, 800.193 744.349 C 799.940 742.568, 800.713 741.933, 804.693 740.656 C 807.337 739.808, 813.550 738.379, 818.500 737.481 C 823.450 736.582, 832.675 734.508, 839 732.872 C 863.017 726.657, 867.478 724.547, 876.108 715.317 C 883.695 707.204, 884.967 698.479, 879.224 693.962 C 875.479 691.016, 871.762 691.627, 852.500 698.355 C 836.555 703.924, 820.737 708.241, 811.788 709.466 C 806.732 710.158, 803 708.899, 803 706.500 C 803 704.352, 805.463 703.392, 819.587 700.036 C 854.790 691.671, 877.405 680.967, 882.986 670.028 C 885.489 665.121, 885.734 655.493, 883.439 652.217 C 881.310 649.177, 876.803 647, 872.638 647 C 870.725 647, 864.106 649.169, 857.839 651.848 C 851.602 654.515, 840.200 658.544, 832.500 660.803 C 811.703 666.903, 801.406 668.399, 799.126 665.652 C 797.110 663.223, 800.938 661.375, 816.757 657.139 C 841.959 650.391, 865.714 640.083, 872.580 632.916 C 878.218 627.032, 876.474 615.371, 868.939 608.564 C 865.119 605.113, 864.744 605, 857.099 605 C 850.214 605, 848.454 605.394, 843.352 608.079 C 831.527 614.301, 801.932 625.326, 785.606 629.590 C 773.726 632.693, 733.880 639, 726.157 639 C 717.675 639, 716.848 634.017, 724.846 631.101 L 729.061 629.564 728.487 614.032 C 727.918 598.628, 726.376 580.114, 725.382 576.750 C 724.685 574.389, 724.356 574.456, 715.899 578.687 M 342.944 642.250 C 340.592 647.888, 336.722 656.881, 334.343 662.236 C 328.875 674.547, 313.931 715.002, 311.052 725.292 C 309.853 729.578, 309.013 734.022, 309.186 735.168 C 309.447 736.902, 311.972 738.057, 324.265 742.062 C 340.553 747.369, 355.934 755.023, 370.975 765.307 C 383.196 773.664, 408.667 801.742, 422.144 821.713 C 440.713 849.231, 467.395 878.389, 484.401 889.746 C 495.105 896.894, 501.983 899.357, 512.106 899.667 C 518.129 899.852, 521.269 899.524, 522.566 898.575 C 524.324 897.290, 524.217 896.966, 520.500 892.360 C 518.344 889.687, 509.258 880.061, 500.308 870.969 C 491.359 861.877, 482.884 852.877, 481.476 850.969 C 478.654 847.144, 478.491 842.708, 481.156 842.203 C 482.205 842.005, 492.417 851.268, 508.999 867.461 C 533.393 891.282, 535.750 893.306, 543.416 897.017 C 550.413 900.403, 552.616 901, 558.117 901 C 563.639 901, 565.384 900.523, 570.011 897.750 C 572.994 895.962, 576.102 893.305, 576.919 891.845 C 578.818 888.450, 578.018 887.422, 568.436 880.957 C 558.361 874.158, 540.145 859.105, 531.129 850.129 C 522.761 841.797, 517.754 833.846, 519.668 831.932 C 521.627 829.973, 525.135 831.992, 533.486 839.886 C 555.821 860.996, 569.025 871.409, 581.435 877.697 C 590.680 882.382, 595.902 882.581, 602.504 878.500 C 607.945 875.137, 612.601 867.532, 611.618 863.616 C 611.266 862.212, 605.442 857.310, 595.781 850.285 C 580.198 838.956, 558.100 819.029, 555.462 813.927 C 553.776 810.667, 553.563 807.388, 554.979 806.513 C 556.602 805.510, 559.439 807.578, 570.069 817.516 C 575.652 822.735, 586.054 831.568, 593.186 837.145 C 610.035 850.322, 619.475 854.276, 625.583 850.715 C 636.564 844.313, 640.017 834.465, 634.131 826.340 C 631.456 822.647, 618.665 811.312, 609.500 804.512 C 605.953 801.881, 591.078 788.801, 583.899 782 C 578.425 776.815, 548.034 743.985, 544.097 739.004 C 541.838 736.146, 539.729 732.768, 539.410 731.498 C 538.792 729.036, 541.423 724, 543.327 724 C 543.931 724, 546.269 725.810, 548.523 728.022 L 552.621 732.045 556.600 730.641 C 566.555 727.129, 592.813 712.372, 599.500 706.532 L 603.500 703.038 601 701.049 C 597.402 698.187, 585.711 694.232, 577 692.930 C 572.723 692.291, 544.788 691.468, 512 691.014 C 454.618 690.219, 452.164 690.059, 440.500 686.341 C 423.802 681.017, 366.634 647.698, 352.879 635.271 C 350.887 633.472, 348.799 632, 348.239 632 C 347.678 632, 345.296 636.612, 342.944 642.250" stroke="none" fill="#273827" fill-rule="evenodd"></path><path d="M 775.998 286.656 C 775.996 287.120, 773.252 288.837, 769.900 290.472 C 761.865 294.390, 759 297.834, 759 303.577 C 759 306.441, 758.559 308.005, 757.750 308.015 C 756.917 308.026, 757 308.354, 758 309 C 759 309.646, 759.083 309.974, 758.250 309.985 C 757.440 309.995, 757 311.563, 757 314.441 C 757 316.884, 756.607 319.125, 756.127 319.421 C 755.647 319.718, 755.213 322.012, 755.163 324.518 C 755.113 327.025, 754.741 329.610, 754.337 330.264 C 753.932 330.918, 753.434 333.258, 753.228 335.463 C 753.023 337.668, 752.550 339.703, 752.177 339.986 C 751.805 340.269, 751.355 342.294, 751.177 344.486 C 751 346.678, 750.422 348.739, 749.893 349.066 C 749.365 349.393, 749.221 350.411, 749.573 351.330 C 749.926 352.248, 749.758 353, 749.201 353 C 748.643 353, 748.423 353.900, 748.710 355 C 749.016 356.168, 748.741 357, 748.049 357 C 747.320 357, 747.109 357.769, 747.500 359 C 747.849 360.100, 747.697 361, 747.161 361 C 746.625 361, 746.423 361.900, 746.710 363 C 746.998 364.100, 746.773 365, 746.210 365 C 745.648 365, 745.441 365.970, 745.751 367.156 C 746.174 368.774, 745.983 369.108, 744.988 368.492 C 743.998 367.881, 743.839 368.138, 744.364 369.506 C 744.751 370.515, 744.681 371.601, 744.209 371.920 C 743.076 372.685, 736 391.113, 736 393.300 C 736 394.235, 735.475 395, 734.833 395 C 734.192 395, 733.963 395.296, 734.325 395.658 C 734.687 396.020, 734.481 396.920, 733.869 397.658 C 733.256 398.396, 733.148 399.007, 733.628 399.015 C 734.107 399.024, 733.915 399.402, 733.200 399.855 C 732.485 400.309, 731.827 401.652, 731.737 402.840 C 731.648 404.028, 731.220 405, 730.787 405 C 730.354 405, 730.053 405.337, 730.118 405.750 C 730.510 408.227, 729.851 411.026, 729 410.500 C 728.145 409.972, 727.768 411.266, 728.085 413.638 C 728.132 413.989, 727.638 414.605, 726.988 415.008 C 726.337 415.410, 725.736 416.879, 725.652 418.273 C 725.569 419.667, 725.163 420.600, 724.750 420.345 C 724.337 420.090, 724 420.376, 724 420.980 C 724 421.584, 722.362 425.660, 720.361 430.039 C 717.749 435.753, 716.206 438, 714.895 438 C 712.763 438, 707 432.688, 707 430.722 C 707 429.982, 706.127 428.440, 705.060 427.295 C 703.993 426.150, 703.431 424.868, 703.810 424.446 C 704.190 424.024, 704.029 423.947, 703.452 424.274 C 702.876 424.601, 700.309 422.702, 697.749 420.054 C 695.188 417.406, 692.847 415.486, 692.547 415.787 C 692.246 416.087, 692 415.868, 692 415.300 C 692 414.064, 684.082 408.667, 682.270 408.667 C 681.571 408.667, 681 408.265, 681 407.774 C 681 407.284, 680.550 407.160, 680 407.500 C 679.450 407.840, 679 407.615, 679 407 C 679 406.385, 678.550 406.160, 678 406.500 C 677.450 406.840, 677 406.737, 677 406.272 C 677 405.806, 676.028 405.352, 674.840 405.263 C 673.652 405.173, 672.414 404.740, 672.090 404.300 C 671.765 403.860, 670.206 403.478, 668.624 403.451 L 665.748 403.402 666.241 412.809 C 666.533 418.396, 667.207 422.510, 667.900 422.938 C 668.542 423.335, 668.779 424.411, 668.427 425.330 C 668.045 426.325, 668.277 427, 669 427 C 669.686 427, 669.955 427.675, 669.618 428.552 C 669.232 429.558, 669.426 429.855, 670.169 429.396 C 670.948 428.914, 671.135 429.377, 670.751 430.844 C 670.441 432.030, 670.643 433, 671.201 433 C 671.758 433, 671.946 433.698, 671.618 434.552 C 671.277 435.442, 671.445 435.843, 672.011 435.493 C 672.913 434.936, 673.386 436.530, 673.270 439.739 C 673.246 440.421, 673.625 440.732, 674.113 440.430 C 674.946 439.915, 675.483 442.282, 675.035 444.500 C 674.924 445.050, 675.178 445.155, 675.600 444.734 C 676.548 443.786, 680.051 451.108, 679.262 452.386 C 678.948 452.894, 679.156 453.022, 679.724 452.671 C 680.308 452.309, 681.009 453.294, 681.338 454.940 C 681.658 456.539, 682.950 458.848, 684.210 460.071 C 685.469 461.294, 685.825 461.929, 685 461.484 C 684.175 461.038, 684.763 461.873, 686.306 463.341 C 687.850 464.808, 688.836 466.457, 688.497 467.004 C 688.159 467.552, 688.385 468, 689 468 C 689.615 468, 689.857 468.422, 689.538 468.939 C 689.219 469.455, 689.755 470.341, 690.729 470.908 C 691.703 471.475, 692.163 471.953, 691.750 471.970 C 691.337 471.986, 691.916 472.916, 693.036 474.036 C 694.157 475.157, 694.834 476.459, 694.542 476.932 C 694.250 477.404, 694.712 478.059, 695.569 478.388 C 696.426 478.717, 696.847 479.439, 696.504 479.993 C 696.162 480.547, 696.359 481, 696.941 481 C 697.523 481, 698 481.470, 698 482.045 C 698 483.344, 707.485 497.485, 710.130 500.130 C 711.199 501.199, 711.834 502.459, 711.542 502.932 C 711.250 503.404, 711.712 504.059, 712.569 504.388 C 713.426 504.717, 713.847 505.439, 713.504 505.993 C 713.162 506.547, 713.385 507, 714 507 C 714.615 507, 714.838 507.453, 714.496 508.007 C 714.153 508.561, 714.574 509.283, 715.431 509.612 C 716.288 509.941, 716.797 510.519, 716.563 510.897 C 716.330 511.276, 718.764 515.616, 721.973 520.543 C 725.182 525.469, 727.600 529.837, 727.345 530.250 C 727.090 530.663, 727.407 531, 728.048 531 C 728.691 531, 728.947 531.696, 728.618 532.552 C 728.291 533.406, 728.420 533.859, 728.905 533.559 C 730.025 532.866, 731.291 537.720, 730.376 539.200 C 729.962 539.871, 730.147 540.027, 730.845 539.595 C 731.938 538.920, 732.443 541.645, 732.311 547.500 C 732.287 548.600, 732.652 549.749, 733.122 550.052 C 733.593 550.356, 734.094 554.856, 734.235 560.052 C 734.377 565.249, 734.817 569.743, 735.214 570.039 C 735.610 570.335, 736.170 576.410, 736.458 583.539 C 737.667 613.541, 738.542 627.876, 739.205 628.538 C 740.205 629.538, 753.131 628.020, 752.487 626.979 C 752.194 626.506, 753.540 626.376, 755.478 626.690 C 757.665 627.045, 759 626.857, 759 626.194 C 759 625.534, 760.433 625.324, 762.750 625.646 C 765.734 626.059, 766.194 625.928, 765 625 C 763.807 624.073, 764.272 623.941, 767.272 624.358 C 769.864 624.718, 770.833 624.538, 770.367 623.785 C 769.899 623.027, 770.828 622.873, 773.367 623.285 C 775.864 623.690, 776.832 623.536, 776.380 622.806 C 775.941 622.096, 776.764 621.885, 778.805 622.185 C 780.639 622.454, 781.652 622.247, 781.299 621.674 C 780.948 621.106, 781.779 620.916, 783.321 621.211 C 784.761 621.486, 785.736 621.382, 785.488 620.980 C 784.883 620.001, 792.826 618.774, 794.215 619.633 C 794.817 620.005, 795.030 619.858, 794.689 619.306 C 794.167 618.461, 799.737 616.636, 806 615.601 C 806.825 615.465, 809.242 614.599, 811.372 613.677 C 813.502 612.755, 816.104 612, 817.155 612 C 819.716 612, 829 607.238, 829 605.924 C 829 605.351, 829.450 605.160, 830 605.500 C 830.550 605.840, 831 605.615, 831 605 C 831 604.385, 831.450 604.160, 832 604.500 C 832.550 604.840, 833 604.615, 833 604 C 833 603.385, 833.403 603.131, 833.895 603.435 C 834.388 603.740, 835.048 603.316, 835.364 602.494 C 835.679 601.672, 836.626 601, 837.469 601 C 838.311 601, 839 600.600, 839 600.110 C 839 597.494, 835.777 582.185, 834.832 580.311 C 834.161 578.982, 833.973 575.841, 834.353 572.311 C 834.697 569.115, 835.026 555.362, 835.083 541.750 C 835.142 527.701, 835.579 517, 836.094 517 C 836.592 517, 837 516.355, 837 515.566 C 837 514.019, 840.523 505.243, 845.130 495.313 C 846.708 491.910, 848 488.171, 848 487.004 C 848 485.837, 848.357 485.102, 848.792 485.372 C 849.228 485.641, 849.656 484.921, 849.742 483.771 C 849.829 482.621, 850.303 481.414, 850.796 481.090 C 852.046 480.268, 867 449.217, 867 447.445 C 867 446.650, 867.450 446, 868 446 C 868.550 446, 869 445.137, 869 444.083 C 869 443.029, 869.475 442.008, 870.054 441.815 C 870.634 441.622, 871.243 440.797, 871.407 439.982 C 871.570 439.167, 873.520 434.675, 875.739 430 C 880.426 420.127, 884 410.280, 884 407.242 C 884 406.074, 884.450 404.840, 885 404.500 C 885.550 404.160, 886 402.360, 886 400.500 C 886 398.640, 886.376 396.885, 886.836 396.601 C 887.296 396.317, 887.753 393.928, 887.852 391.292 C 887.951 388.656, 888.475 386.350, 889.016 386.167 C 890.506 385.662, 890.174 376.143, 888.469 370.524 C 887.639 367.787, 887.189 364.951, 887.468 364.222 C 887.748 363.493, 887.580 363.141, 887.095 363.441 C 886.383 363.881, 884.804 360.060, 884.847 358 C 884.873 356.750, 881.615 354.120, 879.331 353.547 C 876.021 352.716, 874.191 354.366, 873.449 358.850 C 873.116 360.858, 872.583 363.175, 872.264 364 C 871.944 364.825, 871.492 366.847, 871.258 368.492 C 871.025 370.138, 870.512 371.713, 870.119 371.992 C 869.726 372.272, 869.300 374.045, 869.172 375.934 C 869.045 377.822, 868.474 379.928, 867.905 380.614 C 867.336 381.300, 866.831 383.243, 866.783 384.931 C 866.735 386.619, 866.328 388, 865.879 388 C 865.430 388, 865.304 388.629, 865.600 389.399 C 865.895 390.168, 865.675 391.083, 865.112 391.431 C 864.548 391.779, 864.341 392.725, 864.651 393.532 C 864.960 394.339, 864.730 395, 864.138 395 C 863.547 395, 863.300 395.617, 863.589 396.371 C 863.878 397.125, 863.398 398.459, 862.522 399.335 C 861.646 400.212, 860.945 401.282, 860.964 401.714 C 860.984 402.146, 859.831 402.890, 858.402 403.366 C 854.343 404.719, 852.578 402.301, 853.437 396.568 C 853.859 393.758, 854.535 392.213, 855.171 392.606 C 855.840 393.019, 855.972 392.488, 855.540 391.125 C 855.122 389.811, 855.298 389, 856 389 C 856.702 389, 856.878 388.189, 856.460 386.875 C 855.963 385.309, 856.119 384.955, 857.050 385.531 C 857.967 386.098, 858.163 385.733, 857.764 384.204 C 857.460 383.045, 857.602 381.962, 858.078 381.798 C 858.808 381.547, 861.198 373.395, 864.968 358.300 C 865.407 356.540, 865.530 354.863, 865.241 354.574 C 864.952 354.285, 865.248 353.406, 865.899 352.621 C 867.314 350.917, 867.239 333, 865.817 333 C 865.303 333, 865.104 332.641, 865.376 332.201 C 866.425 330.503, 861.236 323.352, 856.783 320.362 C 854.212 318.636, 852.422 316.912, 852.803 316.530 C 853.185 316.148, 851.932 315.986, 850.019 316.168 C 846.850 316.471, 846.516 316.806, 846.267 319.943 C 846.116 321.837, 845.480 323.703, 844.853 324.091 C 844.226 324.478, 843.961 325.741, 844.263 326.898 C 844.565 328.054, 844.357 329, 843.799 329 C 843.242 329, 843.067 329.732, 843.410 330.627 C 843.754 331.521, 843.599 332.778, 843.066 333.420 C 842.534 334.061, 841.937 336.158, 841.740 338.080 C 841.543 340.001, 841.118 342.007, 840.796 342.537 C 839.999 343.849, 833.947 367.647, 833.304 372 C 833.020 373.925, 832.150 375.865, 831.372 376.311 C 830.594 376.758, 830.195 377.506, 830.484 377.974 C 831.128 379.017, 829.011 378.763, 827.095 377.567 C 826.075 376.931, 825.912 377.049, 826.500 378 C 827.021 378.842, 826.917 379.067, 826.211 378.630 C 825.607 378.257, 825.255 376.275, 825.430 374.226 C 825.963 367.973, 827.238 360.556, 827.961 359.500 C 828.338 358.950, 828.738 356.975, 828.849 355.112 C 828.961 353.248, 829.366 351.223, 829.748 350.612 C 830.458 349.478, 830.848 348.053, 831.422 344.500 C 831.599 343.400, 831.860 342.500, 832 342.500 C 832.265 342.500, 832.957 338.615, 833.158 336 C 833.221 335.175, 833.698 333.959, 834.219 333.298 C 834.739 332.637, 834.874 331.178, 834.518 330.057 C 834.162 328.935, 834.198 327.488, 834.599 326.841 C 835.658 325.126, 835.663 314.089, 834.604 314.744 C 834.103 315.054, 834.001 314.132, 834.373 312.649 C 834.784 311.011, 834.627 310, 833.960 310 C 833.367 310, 833.139 309.585, 833.452 309.078 C 833.766 308.570, 831.552 305.645, 828.533 302.578 C 823.340 297.301, 822.778 297, 818.104 297 C 812.629 297, 809.743 297.776, 810.523 299.038 C 810.805 299.493, 809.719 300.644, 808.111 301.594 C 806.434 302.584, 805.405 303.893, 805.700 304.661 C 805.983 305.397, 805.730 306, 805.138 306 C 804.547 306, 804.324 306.681, 804.643 307.513 C 804.963 308.345, 804.686 309.673, 804.029 310.465 C 803.345 311.289, 803.132 312.841, 803.530 314.095 C 803.913 315.300, 803.753 317.909, 803.176 319.893 C 802.599 321.877, 801.377 327.775, 800.461 333 C 799.544 338.225, 797.678 346.550, 796.314 351.500 C 794.949 356.450, 793.472 362.075, 793.031 364 C 792.591 365.925, 792.171 367.050, 792.100 366.500 C 792.028 365.950, 791.603 366.078, 791.155 366.784 C 790.686 367.523, 789.597 367.783, 788.588 367.395 C 787.115 366.830, 786.919 365.830, 787.353 361.112 C 787.994 354.159, 788.956 347.976, 789.706 346 C 790.019 345.175, 790.471 342.706, 790.710 340.514 C 790.950 338.322, 791.522 336.295, 791.982 336.011 C 792.767 335.526, 792.882 334.346, 792.929 326.325 C 792.939 324.579, 793.409 322.865, 793.974 322.516 C 795.364 321.657, 795.339 299.328, 793.947 298.467 C 793.368 298.110, 793.059 297.324, 793.260 296.721 C 793.461 296.118, 792.922 294.917, 792.063 294.052 C 791.203 293.187, 789.578 291.301, 788.452 289.861 C 786.910 287.890, 785.117 287.066, 781.202 286.528 C 778.341 286.134, 775.999 286.192, 775.998 286.656 M 327.239 425.117 C 326.832 425.498, 322.900 426.056, 318.500 426.357 C 306.612 427.169, 299.715 428.082, 297.821 429.096 C 296.892 429.593, 294.275 430, 292.007 430 C 289.738 430, 288.090 430.337, 288.344 430.750 C 288.597 431.163, 287.284 431.611, 285.425 431.748 C 281.765 432.016, 255.107 440.696, 253.550 442.127 C 253.028 442.607, 251.790 443, 250.800 443 C 249.810 443, 249 443.477, 249 444.059 C 249 444.641, 248.550 444.840, 248 444.500 C 247.450 444.160, 247 444.385, 247 445 C 247 445.615, 246.550 445.840, 246 445.500 C 245.450 445.160, 245 445.385, 245 446 C 245 446.615, 244.572 446.853, 244.048 446.530 C 242.590 445.629, 236.893 451.237, 236.968 453.500 C 237.004 454.600, 237.302 463.480, 237.630 473.233 C 238.294 492.997, 236.417 514.283, 233.239 523 C 232.939 523.825, 232.507 525.617, 232.281 526.981 C 232.055 528.346, 231.561 529.696, 231.185 529.981 C 230.808 530.267, 230.346 531.400, 230.158 532.500 C 229.971 533.600, 229.405 534.651, 228.902 534.835 C 228.399 535.020, 228.242 535.582, 228.553 536.085 C 228.864 536.588, 228.615 537, 228 537 C 227.385 537, 227.202 537.518, 227.594 538.152 C 227.985 538.785, 227.476 539.910, 226.462 540.652 C 225.447 541.393, 225.041 542.007, 225.559 542.015 C 226.076 542.024, 226.030 542.361, 225.457 542.765 C 224.108 543.715, 213 563.454, 213 564.900 C 213 565.505, 212.605 566, 212.121 566 C 211.332 566, 208.930 570.713, 208.702 572.707 C 208.653 573.143, 207.912 574.261, 207.056 575.191 C 206.200 576.121, 203.700 580.396, 201.500 584.691 C 199.300 588.986, 197.162 592.650, 196.750 592.833 C 196.338 593.017, 196 594.029, 196 595.083 C 196 596.138, 195.523 597, 194.941 597 C 194.359 597, 194.138 597.414, 194.450 597.919 C 194.763 598.425, 194.339 599.518, 193.509 600.348 C 192.679 601.178, 192 602.355, 192 602.964 C 192 603.572, 191.273 605.180, 190.385 606.535 C 189.497 607.891, 189.159 609.007, 189.635 609.015 C 190.111 609.024, 189.949 609.381, 189.275 609.809 C 188.601 610.237, 187.926 611.693, 187.775 613.044 C 187.624 614.395, 187.268 615.725, 186.983 616 C 185.906 617.043, 179 642.789, 179 645.764 C 179 647.479, 178.610 649.123, 178.133 649.418 C 177.008 650.113, 177.416 671.156, 178.668 677 C 179.868 682.607, 181.385 685.456, 184.230 687.449 C 187.581 689.796, 189.694 689.381, 190.342 686.250 C 192.386 676.365, 192.961 673.876, 194.443 668.500 C 201.665 642.292, 205.617 631, 207.567 631 C 208.277 631, 209.511 631.654, 210.310 632.452 C 211.108 633.251, 212.015 633.652, 212.324 633.342 C 213.138 632.529, 212.516 637.357, 211.620 638.806 C 211.205 639.477, 210.827 641.371, 210.781 643.013 C 210.734 644.656, 210.266 646, 209.741 646 C 209.216 646, 209.040 646.661, 209.349 647.468 C 209.659 648.275, 209.502 649.190, 209 649.500 C 208.498 649.810, 208.341 650.725, 208.651 651.532 C 208.960 652.339, 208.689 653, 208.048 653 C 207.407 653, 207.132 653.404, 207.437 653.897 C 208.226 655.175, 206.916 661.066, 205.972 660.482 C 205.540 660.216, 205.422 660.898, 205.710 661.999 C 205.998 663.099, 205.793 664, 205.255 664 C 204.717 664, 204.505 665.192, 204.784 666.649 C 205.109 668.351, 204.914 669.065, 204.238 668.647 C 203.571 668.235, 203.393 668.787, 203.751 670.155 C 204.147 671.670, 203.958 672.092, 203.117 671.573 C 202.244 671.033, 202.105 671.572, 202.606 673.565 C 203.134 675.669, 202.991 676.113, 201.988 675.493 C 201.021 674.895, 200.831 675.244, 201.249 676.845 C 201.560 678.032, 201.454 678.781, 201.015 678.509 C 199.916 677.830, 198.915 683.801, 198.334 694.491 C 198.065 699.435, 197.440 703.969, 196.945 704.566 C 195.779 705.972, 199.213 715.473, 201.721 717.778 C 202.751 718.725, 202.898 719.050, 202.047 718.500 C 200.701 717.630, 200.678 717.726, 201.863 719.239 C 202.613 720.195, 203.611 720.740, 204.081 720.450 C 204.551 720.159, 206.374 721.296, 208.132 722.976 C 210.433 725.175, 211.913 725.855, 213.414 725.403 C 216.486 724.479, 217.030 723.707, 217.277 719.923 C 217.399 718.041, 217.831 716.252, 218.237 715.949 C 218.642 715.646, 219.121 714.051, 219.301 712.404 C 219.481 710.757, 219.964 708.867, 220.373 708.205 C 220.783 707.542, 220.840 706.550, 220.500 706 C 220.160 705.450, 220.272 705, 220.748 705 C 221.224 705, 222.644 700.837, 223.903 695.750 C 225.162 690.663, 227.499 681.933, 229.096 676.351 C 230.693 670.769, 232 665.256, 232 664.101 C 232 662.945, 232.477 662, 233.059 662 C 233.641 662, 233.859 661.581, 233.543 661.069 C 233.226 660.557, 233.432 659.851, 234 659.500 C 234.568 659.149, 234.774 658.443, 234.457 657.931 C 234.141 657.419, 234.385 657, 235 657 C 235.615 657, 235.871 656.601, 235.570 656.113 C 234.595 654.535, 237.377 653.184, 239.750 654.083 C 242.595 655.161, 242.687 658.545, 240.088 666.585 C 237.233 675.417, 234.104 686.239, 233.753 688.502 C 233.582 689.601, 233.116 691.022, 232.717 691.661 C 232.319 692.299, 231.912 694.099, 231.815 695.661 C 231.717 697.222, 231.282 698.980, 230.849 699.566 C 230.415 700.153, 229.968 702.178, 229.856 704.066 C 229.743 705.955, 229.392 707.950, 229.076 708.500 C 228.439 709.606, 228.363 710.329, 228.148 717.309 C 228.058 720.228, 227.607 721.875, 227 721.500 C 226.390 721.123, 226 722.637, 226 725.382 C 226 727.857, 226.394 730.125, 226.875 730.423 C 227.356 730.720, 227.750 732.073, 227.750 733.428 C 227.750 734.784, 228.485 736.628, 229.384 737.527 C 230.283 738.426, 230.763 739.575, 230.450 740.081 C 230.138 740.586, 230.249 741, 230.697 741 C 231.145 741, 232.091 742.309, 232.799 743.909 C 234.548 747.859, 240.857 750.390, 246.419 749.372 C 248.663 748.961, 250.843 748.711, 251.262 748.816 C 252.391 749.100, 255.991 742.795, 255.320 741.709 C 255.003 741.196, 255.260 740.457, 255.891 740.068 C 256.521 739.678, 257.141 736.466, 257.269 732.929 C 257.396 729.393, 257.839 726.247, 258.254 725.939 C 258.668 725.630, 259.118 722.855, 259.254 719.773 C 259.389 716.690, 259.707 714.374, 259.960 714.627 C 260.213 714.879, 261.679 710.229, 263.219 704.293 C 264.759 698.357, 266.964 690.575, 268.120 687 C 269.275 683.425, 270.308 679.951, 270.415 679.279 C 270.521 678.607, 270.922 677.745, 271.304 677.362 C 271.687 676.980, 272.002 675.954, 272.005 675.083 C 272.008 674.213, 273.055 672.194, 274.332 670.598 C 276.227 668.230, 277.145 667.820, 279.327 668.367 C 281.842 668.999, 283.166 672.324, 281.237 673.167 C 280.258 673.594, 272.886 698.304, 272.263 703.250 C 272.003 705.313, 271.464 707, 271.066 707 C 270.667 707, 270.345 707.788, 270.349 708.750 C 270.372 714.073, 269.896 717.054, 269.100 716.562 C 268.075 715.929, 267.952 717.825, 267.690 738.249 C 267.585 746.362, 267.864 752.999, 268.309 752.999 C 268.754 753, 268.840 753.450, 268.500 754 C 268.160 754.550, 268.359 755, 268.941 755 C 269.523 755, 270 755.513, 270 756.140 C 270 761.320, 286.073 761.054, 289.818 755.812 C 290.544 754.797, 291.626 754.269, 292.223 754.638 C 292.874 755.040, 293.021 754.844, 292.591 754.147 C 292.190 753.498, 292.560 752.722, 293.431 752.388 C 294.288 752.059, 294.740 751.388, 294.435 750.895 C 294.131 750.403, 294.385 750, 295 750 C 295.615 750, 295.840 749.550, 295.500 749 C 295.160 748.450, 295.385 748, 296 748 C 296.615 748, 296.840 747.550, 296.500 747 C 296.160 746.450, 296.328 746, 296.874 746 C 297.420 746, 297.852 744.763, 297.836 743.250 C 297.807 740.670, 304.452 717.536, 308.894 704.750 C 309.993 701.587, 310.636 699, 310.324 699 C 310.011 699, 310.251 698.402, 310.858 697.672 C 311.464 696.941, 312.125 695.478, 312.327 694.422 C 312.529 693.365, 313.261 691.150, 313.953 689.500 C 314.645 687.850, 316.028 684.250, 317.027 681.500 C 318.026 678.750, 320.929 671.100, 323.478 664.500 C 326.028 657.900, 329.719 648.225, 331.680 643 C 336.876 629.155, 342.539 616.932, 345.347 613.500 C 348.616 609.504, 350.482 610.678, 353.719 618.769 C 355.088 622.190, 356.560 624.772, 356.990 624.506 C 358.072 623.837, 360.305 626.697, 359.597 627.843 C 359.281 628.355, 359.805 629.387, 360.761 630.137 C 362.361 631.391, 362.387 631.340, 361.084 629.500 C 360.306 628.400, 361.254 629.075, 363.192 631 C 367.973 635.749, 370.255 637.425, 379 642.612 C 383.125 645.059, 388.845 648.607, 391.712 650.497 C 394.578 652.387, 397.118 653.611, 397.355 653.216 C 398.907 650.640, 393.454 618.640, 391.193 617.053 C 390.759 616.749, 390.336 615.415, 390.252 614.090 C 390.169 612.764, 389.740 611.414, 389.300 611.090 C 388.860 610.765, 388.346 609.600, 388.158 608.500 C 387.971 607.400, 387.408 606.350, 386.908 606.167 C 386.409 605.983, 386 604.746, 386 603.417 C 386 602.087, 385.625 601, 385.167 601 C 384.708 601, 384.333 600.438, 384.333 599.750 C 384.333 598.427, 371.205 571.854, 370.130 571 C 369.783 570.725, 369.354 569.825, 369.175 569 C 368.996 568.175, 368.431 567.349, 367.919 567.165 C 367.407 566.980, 367.242 566.418, 367.553 565.915 C 367.864 565.412, 367.615 565, 367 565 C 366.385 565, 366.160 564.550, 366.500 564 C 366.840 563.450, 366.615 563, 366 563 C 365.385 563, 365.160 562.550, 365.500 562 C 365.840 561.450, 365.615 561, 365 561 C 364.385 561, 364.136 560.588, 364.447 560.085 C 364.758 559.582, 364.672 559.020, 364.256 558.835 C 363.387 558.450, 357.839 548.347, 351.715 536 C 349.397 531.325, 347.124 527.225, 346.665 526.888 C 346.205 526.552, 345.950 526.102, 346.097 525.888 C 346.244 525.675, 346.129 524.600, 345.841 523.500 C 345.553 522.400, 345.359 521.232, 345.409 520.904 C 345.459 520.576, 344.899 519.583, 344.164 518.697 C 343.429 517.812, 343.161 516.548, 343.568 515.889 C 344.037 515.131, 343.885 514.953, 343.155 515.405 C 341.739 516.279, 341.893 521.175, 341.679 468.514 L 341.500 424.529 334.739 424.476 C 331.020 424.447, 327.645 424.735, 327.239 425.117 M 833.395 548.500 C 833.396 556.200, 833.553 559.218, 833.743 555.206 C 833.934 551.195, 833.932 544.895, 833.741 541.206 C 833.549 537.518, 833.393 540.800, 833.395 548.500" stroke="none" fill="#fe5722" fill-rule="evenodd"></path><path d="M 498.500 161.897 C 496.300 162.917, 492.700 165.347, 490.500 167.297 L 486.500 170.843 490.289 174.456 C 492.373 176.444, 494.480 177.822, 494.970 177.518 C 495.461 177.215, 496.187 177.494, 496.585 178.138 C 497.037 178.869, 496.876 179.041, 496.155 178.595 C 493.720 177.091, 495.150 178.733, 498.250 181.003 C 500.038 182.312, 501.050 182.713, 500.500 181.894 C 499.950 181.075, 500.523 181.552, 501.774 182.953 C 503.025 184.354, 504.520 185.376, 505.098 185.225 C 505.676 185.074, 505.878 185.389, 505.546 185.925 C 504.919 186.940, 508.368 189.298, 509.226 188.441 C 509.495 188.172, 510.342 188.750, 511.107 189.726 C 512.403 191.377, 512.361 191.396, 510.500 190 C 508.645 188.609, 508.600 188.627, 509.872 190.250 C 510.627 191.213, 511.680 192, 512.212 192 C 512.744 192, 513.927 192.809, 514.840 193.797 C 515.888 194.932, 516.172 195.024, 515.610 194.047 C 515.120 193.196, 516.695 194.586, 519.110 197.136 C 524.445 202.769, 534.640 211.984, 533.618 210.250 C 533.213 209.563, 533.303 209, 533.819 209 C 535.266 209, 537.245 211.795, 536.570 212.887 C 536.238 213.423, 536.494 214.187, 537.138 214.585 C 537.919 215.068, 538.039 214.873, 537.500 214 C 536.976 213.152, 537.082 212.933, 537.802 213.378 C 538.413 213.755, 538.659 214.725, 538.349 215.532 C 538.040 216.339, 538.284 217, 538.893 217 C 540.867 217, 540.066 220.844, 537.953 221.515 C 535.889 222.170, 532.072 219.878, 525.595 214.094 C 523.998 212.667, 523.033 212.175, 523.452 213 C 523.871 213.825, 522.028 212.190, 519.357 209.367 C 513.215 202.876, 502.712 194, 501.172 194 C 500.528 194, 500 193.567, 500 193.037 C 500 191.677, 489.266 184.552, 482.671 181.535 C 474.715 177.896, 466.861 178.404, 463.257 182.789 C 462.484 183.730, 462.137 183.938, 462.485 183.250 C 463.893 180.470, 461.862 182.252, 459.424 185.936 C 457.357 189.059, 456.933 190.658, 457.372 193.686 C 457.676 195.784, 457.941 197.639, 457.962 197.809 C 457.983 197.979, 458.526 197.793, 459.170 197.395 C 459.952 196.912, 460.132 197.213, 459.714 198.304 C 459.369 199.202, 459.587 200.245, 460.198 200.622 C 460.871 201.038, 461.028 200.854, 460.595 200.155 C 459.126 197.777, 460.840 199.106, 462.489 201.623 C 463.434 203.066, 463.711 203.939, 463.104 203.564 C 460.445 201.921, 462.387 204.073, 466.750 207.603 C 469.363 209.718, 470.882 210.672, 470.128 209.724 C 468.289 207.414, 470.245 207.508, 472.347 209.831 C 473.259 210.838, 473.666 212.035, 473.252 212.491 C 472.838 212.948, 473.053 213.003, 473.728 212.615 C 474.478 212.184, 477.009 213.977, 480.228 217.220 C 483.128 220.141, 490 226.780, 495.500 231.974 C 501 237.168, 504.860 241.024, 504.077 240.543 C 502.991 239.876, 503.033 240.209, 504.252 241.949 C 505.899 244.301, 505.608 247, 503.707 247 C 503.114 247, 501.489 245.987, 500.095 244.750 C 498.701 243.512, 498.165 243.287, 498.903 244.250 C 499.825 245.453, 499.886 246, 499.098 246 C 498.467 246, 497.562 244.979, 497.088 243.731 C 496.108 241.153, 487.626 233, 485.924 233 C 485.307 233, 483.451 231.553, 481.798 229.784 C 477.748 225.448, 463.811 214.999, 462.861 215.586 C 462.443 215.845, 461.591 215.105, 460.969 213.942 C 460.347 212.780, 459.596 212.071, 459.300 212.367 C 459.004 212.663, 458.127 212.270, 457.352 211.495 C 456.577 210.719, 455.206 210.367, 454.307 210.712 C 453.221 211.129, 452.912 210.951, 453.388 210.181 C 453.856 209.425, 453.566 209.229, 452.552 209.618 C 451.698 209.946, 451 209.807, 451 209.311 C 451 208.255, 447.256 208.319, 444.798 209.417 C 443.862 209.835, 442.624 209.886, 442.048 209.530 C 441.472 209.173, 441 209.385, 441 210 C 441 210.615, 440.572 210.853, 440.048 210.530 C 439.525 210.206, 437.050 211.902, 434.548 214.299 C 430.104 218.558, 430 218.799, 430 224.888 C 430 229.342, 430.329 230.915, 431.155 230.405 C 431.890 229.950, 432.037 230.132, 431.559 230.904 C 430.029 233.381, 443.142 247.758, 447.517 248.400 C 448.306 248.515, 450.425 250.190, 452.225 252.121 C 454.026 254.052, 454.827 254.702, 454.005 253.566 C 453.183 252.430, 455.437 254.537, 459.015 258.250 C 462.592 261.962, 466.214 265, 467.064 265 C 467.913 265, 470.158 266.687, 472.054 268.748 L 475.500 272.496 472 269.498 L 468.500 266.500 471.403 269.714 C 473 271.482, 474.614 272.739, 474.990 272.506 C 476.028 271.865, 480 274.938, 480 276.382 C 480 277.866, 484.410 282.256, 485.154 281.513 C 485.431 281.235, 486.714 282.131, 488.004 283.504 C 489.293 284.877, 489.947 286, 489.456 286 C 488.964 286, 491.213 288.679, 494.453 291.953 C 497.693 295.227, 500.728 297.668, 501.197 297.378 C 501.666 297.089, 501.970 297.222, 501.873 297.676 C 501.776 298.129, 506.308 303.225, 511.945 309 C 517.582 314.775, 521.858 318.825, 521.447 318 C 521.036 317.175, 522.342 318.051, 524.350 319.946 C 528.054 323.443, 529.455 326.361, 526.250 323.903 C 525.288 323.165, 525.591 323.784, 526.924 325.280 C 529.647 328.335, 530.902 328.921, 528.998 326.250 C 528.312 325.288, 528.948 325.782, 530.412 327.348 C 532.267 329.333, 532.878 330.809, 532.430 332.222 C 532.076 333.336, 531.681 334.979, 531.553 335.874 C 531.423 336.779, 530.250 337.603, 528.909 337.733 C 526.706 337.946, 526.671 337.887, 528.500 337.053 C 530.624 336.084, 530.678 336.102, 524.164 335.591 C 523.429 335.533, 522.222 334.657, 521.481 333.643 C 520.298 332.025, 519.698 331.945, 516.558 332.981 C 514.453 333.675, 513.255 334.603, 513.645 335.235 C 514.024 335.847, 513.842 336.021, 513.223 335.638 C 512.103 334.945, 505 337.865, 505 339.019 C 505 339.375, 504.411 339.667, 503.691 339.667 C 501.102 339.667, 488.061 346.290, 488.680 347.291 C 489.026 347.851, 488.830 348.013, 488.245 347.651 C 486.736 346.719, 483.881 347.999, 484.660 349.259 C 485.039 349.872, 484.829 350.012, 484.156 349.597 C 482.905 348.823, 478.642 351.309, 479.592 352.259 C 479.911 352.577, 479.120 353.398, 477.836 354.083 C 475.639 355.254, 475.589 355.218, 477 353.489 C 477.825 352.478, 476.476 353.111, 474.003 354.896 C 470.391 357.502, 469.572 358.641, 469.839 360.682 C 470.084 362.548, 469.817 363.038, 468.836 362.526 C 468.101 362.141, 468.618 362.735, 469.985 363.845 C 471.352 364.955, 472.643 365.690, 472.854 365.479 C 473.065 365.268, 473.896 365.753, 474.700 366.557 C 475.504 367.361, 476.575 367.763, 477.081 367.450 C 477.586 367.138, 478 367.385, 478 368 C 478 368.615, 478.450 368.840, 479 368.500 C 479.550 368.160, 480 368.316, 480 368.847 C 480 369.378, 480.895 369.579, 481.988 369.293 C 483.238 368.966, 484.201 369.360, 484.583 370.354 C 485.056 371.589, 486.118 371.809, 489.426 371.355 C 492.275 370.965, 494.636 371.278, 496.633 372.310 C 498.799 373.430, 501.283 373.694, 505.802 373.284 C 510.100 372.894, 512 373.071, 512 373.861 C 512 374.694, 522.874 375, 552.500 375 C 578.833 375, 593 374.650, 593 374 C 593 373.412, 596.500 373, 601.500 373 C 606.175 373, 610 373.420, 610 373.934 C 610 374.448, 613.712 374.830, 618.250 374.783 C 623.912 374.725, 627.738 375.226, 630.447 376.381 C 632.618 377.306, 635.004 377.829, 635.749 377.543 C 636.556 377.233, 636.830 377.466, 636.427 378.119 C 635.969 378.859, 636.479 378.983, 638 378.500 C 639.453 378.039, 640.024 378.153, 639.611 378.821 C 638.822 380.097, 642.543 381.400, 644.146 380.410 C 644.823 379.991, 645.041 380.125, 644.667 380.729 C 643.952 381.887, 649.657 384.597, 652 384.213 C 652.825 384.078, 654.766 385.144, 656.314 386.583 C 660.202 390.198, 681.966 401.371, 680.500 399 C 680.158 398.447, 680.567 398.280, 681.442 398.616 C 682.293 398.943, 682.769 399.565, 682.500 400 C 682.231 400.435, 682.707 401.057, 683.558 401.384 C 684.574 401.774, 684.889 401.553, 684.478 400.739 C 684.133 400.057, 684.560 400.374, 685.426 401.441 C 686.292 402.509, 687.014 402.959, 687.030 402.441 C 687.047 401.924, 687.525 402.297, 688.092 403.271 C 688.659 404.245, 689.545 404.781, 690.061 404.462 C 690.578 404.143, 691 404.359, 691 404.941 C 691 405.523, 691.418 405.888, 691.929 405.750 C 692.441 405.613, 693.599 406.400, 694.504 407.500 C 695.408 408.600, 695.827 408.879, 695.435 408.120 C 694.961 407.204, 695.188 406.896, 696.111 407.204 C 696.875 407.458, 697.500 408.154, 697.500 408.750 C 697.500 409.346, 697.910 410.208, 698.410 410.667 C 698.939 411.151, 699.019 410.976, 698.601 410.250 C 698.206 409.563, 698.303 409, 698.819 409 C 700.028 409, 702.138 411.529, 701.479 412.188 C 700.871 412.795, 712.383 421, 713.842 421 C 714.861 421, 716.576 417.179, 716.198 415.750 C 716.089 415.337, 716.420 415, 716.933 415 C 717.882 415, 719.559 411.115, 719.198 409.750 C 719.089 409.337, 719.401 409, 719.892 409 C 720.761 409, 722.491 404.244, 722.164 402.750 C 722.074 402.337, 722.415 402, 722.921 402 C 725.036 402, 741.849 354.183, 740.501 352.002 C 740.219 351.545, 740.485 351.005, 741.093 350.802 C 741.701 350.600, 742.306 349.060, 742.439 347.381 C 742.571 345.703, 742.978 343.845, 743.344 343.253 C 744.794 340.906, 748.018 322.337, 747.466 319.510 C 747.073 317.494, 747.187 316.946, 747.811 317.851 C 748.497 318.845, 748.865 318.371, 749.205 316.057 C 749.459 314.327, 749.208 312.629, 748.647 312.282 C 748.087 311.936, 744.899 311.697, 741.564 311.752 C 737.384 311.821, 736.121 311.586, 737.500 310.996 C 739.233 310.255, 739.100 310.121, 736.500 309.994 C 733.132 309.829, 731.412 309.508, 728.500 308.502 C 726.889 307.946, 726.792 308.021, 728 308.890 C 728.825 309.484, 729.038 309.976, 728.473 309.985 C 727.907 309.993, 726.445 309.299, 725.223 308.443 C 723.672 307.357, 723 307.253, 723 308.098 C 723 308.861, 722.282 308.660, 721.063 307.557 C 719.998 306.593, 718.597 306.131, 717.951 306.530 C 717.305 306.929, 716.342 306.636, 715.812 305.878 C 715.103 304.865, 714.718 304.816, 714.359 305.694 C 714.091 306.350, 713.227 306.641, 712.441 306.339 C 711.655 306.037, 711.260 305.388, 711.565 304.895 C 711.869 304.403, 711.641 304, 711.059 304 C 710.477 304, 709.986 304.563, 709.968 305.250 C 709.949 306.007, 709.408 305.804, 708.595 304.733 C 707.728 303.590, 706.621 303.208, 705.463 303.653 C 704.233 304.124, 703.899 303.973, 704.395 303.170 C 704.793 302.526, 704.678 302, 704.141 302 C 703.603 302, 702.339 301.733, 701.332 301.406 C 699.808 300.911, 699.752 300.993, 701 301.890 C 701.825 302.484, 702.050 302.969, 701.500 302.969 C 700.111 302.969, 697.268 301.051, 698.500 300.945 C 699.050 300.898, 697.761 300.221, 695.635 299.442 C 693.508 298.662, 691.301 298.314, 690.730 298.667 C 690.127 299.039, 689.991 298.824, 690.405 298.155 C 691.067 297.083, 689.682 296.606, 686.261 296.730 C 685.579 296.754, 685.248 296.407, 685.525 295.959 C 685.979 295.225, 683.065 293.801, 680.500 293.502 C 678.329 293.249, 676.041 291.743, 676.558 290.907 C 676.858 290.421, 676.406 290.291, 675.552 290.618 C 674.546 291.004, 674 290.648, 674 289.607 C 674 288.723, 673.627 288.112, 673.170 288.250 C 672.714 288.387, 669.226 285.323, 665.420 281.439 C 661.614 277.556, 657.666 274.065, 656.646 273.681 C 655.497 273.248, 655.017 272.397, 655.385 271.440 C 655.711 270.591, 655.573 270.146, 655.080 270.451 C 653.983 271.128, 649 265.392, 649 263.453 C 649 261.312, 642.798 253, 641.201 253 C 640.333 253, 640.016 252.400, 640.382 251.448 C 640.709 250.594, 640.576 250.144, 640.086 250.447 C 639.596 250.750, 638.725 249.648, 638.150 247.999 C 637.575 246.351, 635.843 243.802, 634.302 242.337 C 632.761 240.872, 632.144 240.048, 632.931 240.508 C 634.829 241.614, 629.368 234.149, 626.079 231.140 C 624.661 229.842, 624.175 229.132, 625 229.562 C 626.816 230.508, 623.841 226.650, 620.050 223.140 C 618.647 221.842, 618.151 221.136, 618.947 221.571 C 619.799 222.036, 619.512 221.157, 618.248 219.431 C 615.261 215.352, 610.702 210.204, 611.582 211.905 C 612.064 212.835, 611.914 213.065, 611.138 212.585 C 610.494 212.187, 610.191 211.500, 610.465 211.057 C 610.738 210.614, 605.541 204.683, 598.916 197.876 C 592.290 191.069, 587.157 186.175, 587.509 187 C 587.860 187.825, 587.408 187.600, 586.504 186.500 C 585.599 185.400, 584.407 184.624, 583.855 184.775 C 583.303 184.926, 583.096 184.653, 583.396 184.168 C 584.338 182.643, 569.272 171.691, 559.283 166.638 C 553.376 163.651, 544.794 163.084, 541.640 165.473 C 539.833 166.841, 539.838 166.962, 541.815 169.691 C 542.935 171.236, 547.145 175.650, 551.171 179.500 C 557.400 185.457, 557.746 185.681, 553.495 181.001 L 548.500 175.501 553.342 180.001 C 556.005 182.475, 558.586 185.524, 559.077 186.775 C 559.568 188.026, 561.550 189.982, 563.483 191.123 C 565.416 192.263, 566.729 193.630, 566.401 194.161 C 565.594 195.466, 569.004 199.115, 570.288 198.322 C 570.850 197.975, 571.023 198.154, 570.673 198.720 C 570.324 199.285, 571.042 200.834, 572.269 202.161 C 573.496 203.489, 574.495 205.328, 574.488 206.249 C 574.471 208.703, 572.459 210.361, 570.720 209.354 C 569.911 208.884, 560.839 200.400, 550.561 190.500 C 540.283 180.600, 531.452 172.612, 530.937 172.750 C 530.421 172.887, 530 172.604, 530 172.120 C 530 170.225, 518.304 162.526, 513.552 161.294 C 506.831 159.550, 503.256 159.694, 498.500 161.897 M 493.500 229 C 496.766 232.300, 499.662 235, 499.937 235 C 500.212 235, 497.766 232.300, 494.500 229 C 491.234 225.700, 488.338 223, 488.063 223 C 487.788 223, 490.234 225.700, 493.500 229 M 348.750 281.732 C 351.087 281.943, 354.913 281.943, 357.250 281.732 C 359.587 281.522, 357.675 281.349, 353 281.349 C 348.325 281.349, 346.413 281.522, 348.750 281.732 M 342.944 642.250 C 340.592 647.888, 336.722 656.881, 334.343 662.236 C 328.875 674.547, 313.931 715.002, 311.052 725.292 C 309.853 729.578, 309.013 734.022, 309.186 735.168 C 309.447 736.902, 311.972 738.057, 324.265 742.062 C 340.553 747.369, 355.934 755.023, 370.975 765.307 C 383.196 773.664, 408.667 801.742, 422.144 821.713 C 440.713 849.231, 467.395 878.389, 484.401 889.746 C 495.105 896.894, 501.983 899.357, 512.106 899.667 C 518.129 899.852, 521.269 899.524, 522.566 898.575 C 524.324 897.290, 524.217 896.966, 520.500 892.360 C 518.344 889.687, 509.258 880.061, 500.308 870.969 C 491.359 861.877, 482.884 852.877, 481.476 850.969 C 478.654 847.144, 478.491 842.708, 481.156 842.203 C 482.205 842.005, 492.417 851.268, 508.999 867.461 C 533.393 891.282, 535.750 893.306, 543.416 897.017 C 550.413 900.403, 552.616 901, 558.117 901 C 563.639 901, 565.384 900.523, 570.011 897.750 C 572.994 895.962, 576.102 893.305, 576.919 891.845 C 578.818 888.450, 578.018 887.422, 568.436 880.957 C 558.361 874.158, 540.145 859.105, 531.129 850.129 C 522.761 841.797, 517.754 833.846, 519.668 831.932 C 521.627 829.973, 525.135 831.992, 533.486 839.886 C 555.821 860.996, 569.025 871.409, 581.435 877.697 C 590.680 882.382, 595.902 882.581, 602.504 878.500 C 607.945 875.137, 612.601 867.532, 611.618 863.616 C 611.266 862.212, 605.442 857.310, 595.781 850.285 C 580.198 838.956, 558.100 819.029, 555.462 813.927 C 553.776 810.667, 553.563 807.388, 554.979 806.513 C 556.602 805.510, 559.439 807.578, 570.069 817.516 C 575.652 822.735, 586.054 831.568, 593.186 837.145 C 610.035 850.322, 619.475 854.276, 625.583 850.715 C 636.564 844.313, 640.017 834.465, 634.131 826.340 C 631.456 822.647, 618.665 811.312, 609.500 804.512 C 605.953 801.881, 591.078 788.801, 583.899 782 C 578.425 776.815, 548.034 743.985, 544.097 739.004 C 541.838 736.146, 539.729 732.768, 539.410 731.498 C 538.792 729.036, 541.423 724, 543.327 724 C 543.931 724, 546.269 725.810, 548.523 728.022 L 552.621 732.045 556.600 730.641 C 566.555 727.129, 592.813 712.372, 599.500 706.532 L 603.500 703.038 601 701.049 C 597.402 698.187, 585.711 694.232, 577 692.930 C 572.723 692.291, 544.788 691.468, 512 691.014 C 454.618 690.219, 452.164 690.059, 440.500 686.341 C 423.802 681.017, 366.634 647.698, 352.879 635.271 C 350.887 633.472, 348.799 632, 348.239 632 C 347.678 632, 345.296 636.612, 342.944 642.250" stroke="none" fill="#4cb050" fill-rule="evenodd"></path><path d="M 583.689 28.114 C 582.347 28.895, 582.023 29.924, 582.439 32.084 C 584.301 41.763, 583.795 41, 588.357 41 C 595.319 41, 599.027 44.968, 600.394 53.882 L 601.066 58.263 597.783 57.563 C 595.977 57.178, 591.800 56.455, 588.500 55.955 C 585.200 55.455, 570.375 53.008, 555.557 50.517 C 540.738 48.025, 528.267 46.333, 527.843 46.757 C 527.420 47.180, 526.772 50.085, 526.405 53.211 C 525.768 58.634, 525.847 58.919, 528.118 59.391 C 539.241 61.705, 538.477 61.284, 538.810 65.268 C 539.171 69.594, 536.013 73.514, 531.336 74.543 C 525.563 75.813, 525.683 75.638, 526.388 81.771 C 527.295 89.667, 531.288 97.472, 536.263 101.076 C 541.657 104.983, 547.100 106.322, 555.245 105.745 L 561.989 105.268 561.361 112.022 L 560.734 118.777 565.916 119.889 C 572.065 121.207, 574.702 121.292, 575.382 120.192 C 575.821 119.480, 584 71.475, 584 69.606 C 584 68.936, 590.354 69.460, 595.750 70.574 C 598.756 71.194, 598.708 72.010, 594.027 99.500 C 591.872 112.150, 590.458 122.850, 590.883 123.278 C 592.215 124.619, 604.219 126.181, 605.252 125.148 C 605.985 124.415, 613.908 78.560, 613.983 74.614 C 613.992 74.127, 615.923 73.992, 618.272 74.314 C 620.622 74.636, 623.031 74.584, 623.625 74.200 C 624.219 73.815, 625.008 71.171, 625.377 68.324 C 626.142 62.437, 625.679 61.863, 619.516 61.035 L 615.531 60.500 613.786 52 C 611.590 41.304, 609.532 36.674, 605.340 32.994 C 599.922 28.237, 588.070 25.566, 583.689 28.114 M 490 55.556 C 488.075 56.284, 477.950 59.876, 467.500 63.539 C 457.050 67.202, 446.250 70.995, 443.500 71.968 C 438.941 73.581, 438.512 74.002, 438.633 76.739 C 438.707 78.390, 439.401 81.037, 440.176 82.620 C 442.102 86.552, 444.390 86.223, 461.500 79.554 C 474.033 74.669, 475.628 74.265, 476.718 75.696 C 478.269 77.731, 477.702 78.607, 474.276 79.467 C 472.767 79.846, 468.278 81.659, 464.301 83.497 C 456.106 87.283, 453.010 91.063, 453.004 97.290 C 452.999 101.701, 456.164 108.482, 458.914 109.954 C 460.591 110.852, 460.689 111.405, 459.721 114.556 C 458.205 119.498, 460.131 126.234, 464.634 131.728 C 468.986 137.040, 486.195 145.998, 488.840 144.329 C 490.828 143.075, 494.408 134.506, 493.707 132.679 C 493.418 131.927, 490.409 130.275, 487.019 129.007 C 472.526 123.587, 470.977 114.546, 483.677 109.501 C 491.352 106.452, 496.253 109.321, 492.190 114.485 C 489.798 117.527, 490.020 118.329, 494.827 124 L 497.794 127.500 501.647 124.394 C 507.136 119.969, 509.199 115.958, 509.152 109.807 C 509.107 104.023, 507.323 100.866, 502.085 97.300 C 495.673 92.936, 486.042 93.558, 474.614 99.074 C 472.477 100.106, 470.339 100.710, 469.864 100.416 C 468.578 99.621, 468.820 96.387, 470.250 95.262 C 471.295 94.441, 494.405 86, 495.610 86 C 496.548 86, 495.849 81.874, 494 76.500 C 492.900 73.303, 492 70.304, 492 69.835 C 492 69.367, 493.833 68.250, 496.074 67.354 C 500.522 65.574, 500.626 64.828, 497.483 57.305 C 495.986 53.722, 495.286 53.558, 490 55.556 M 553.827 70.382 C 553.473 75.928, 552.963 77.429, 550.586 79.910 C 549.035 81.530, 546.468 83.392, 544.883 84.049 C 541.360 85.508, 541.321 86.048, 544.514 89.241 C 548.862 93.589, 557.326 93.778, 562.332 89.640 C 564.468 87.875, 565.190 85.924, 566.457 78.500 C 568.571 66.115, 568.613 66.354, 564.250 65.654 C 562.188 65.324, 559.093 64.771, 557.373 64.426 L 554.246 63.799 553.827 70.382 M 655.278 80.518 C 654.086 81.353, 652.129 83.414, 650.930 85.098 L 648.750 88.160 652.375 91.872 C 654.369 93.914, 656 95.973, 656 96.448 C 656 96.923, 654.235 99.042, 652.079 101.156 C 648.182 104.976, 645.683 105.914, 644.500 104 C 643.331 102.108, 639.370 103.005, 636.774 105.750 C 629.091 113.875, 632.747 131, 642.165 131 C 645.023 131, 646.769 129.583, 656.339 119.500 C 662.342 113.175, 667.759 108.018, 668.377 108.041 C 668.994 108.064, 671.469 109.862, 673.876 112.038 L 678.251 115.995 669.688 125.247 C 664.979 130.336, 657.065 138.775, 652.102 144 C 647.139 149.225, 643.061 154.249, 643.039 155.165 C 642.997 156.966, 651.571 165.049, 653.391 164.923 C 654.001 164.881, 662.371 156.380, 671.991 146.032 L 689.483 127.218 694.340 131.285 C 697.012 133.522, 699.430 135.956, 699.713 136.695 C 700.017 137.485, 693.704 144.922, 684.364 154.778 C 675.639 163.985, 667.630 172.540, 666.568 173.789 L 664.635 176.061 669.530 181.030 C 672.222 183.764, 674.918 186, 675.520 186 C 676.122 186, 684.658 177.443, 694.487 166.985 L 712.360 147.971 714.985 150.485 C 718.440 153.795, 719.968 153.660, 723.804 149.702 C 727.799 145.580, 727.819 143.786, 723.904 140.722 L 720.807 138.298 723.904 129.281 C 728.624 115.531, 727.855 107.182, 721.183 99.761 C 710.179 87.521, 698.717 86.694, 689.812 97.500 C 688.453 99.150, 687.053 101.287, 686.702 102.250 C 686.350 103.213, 685.653 104, 685.152 104 C 684.651 104, 678.354 98.375, 671.157 91.500 C 663.961 84.625, 657.932 79, 657.759 79 C 657.586 79, 656.470 79.683, 655.278 80.518 M 382.135 117.546 C 367.211 132.696, 355 145.506, 355 146.011 C 355 147.721, 361.195 154, 362.882 154 C 363.804 154, 367.457 151.075, 371 147.500 C 374.543 143.925, 377.929 141, 378.525 141 C 379.978 141, 386 147.282, 386 148.798 C 386 149.459, 385.507 150, 384.904 150 C 382.863 150, 377.866 154.221, 376.901 156.762 C 375.610 160.155, 377.398 165.375, 380.559 167.447 C 383.872 169.618, 395.061 170.957, 409 170.851 C 424.942 170.730, 426.420 170.333, 426.827 166.063 C 427.007 164.177, 426.879 161.170, 426.543 159.380 L 425.933 156.126 413.466 156.715 C 406.285 157.054, 401.008 156.922, 401.020 156.402 C 401.031 155.906, 403.334 154.150, 406.138 152.500 C 408.942 150.850, 413.900 146.603, 417.157 143.063 L 423.079 136.625 430.811 144.313 C 435.064 148.541, 439.192 152, 439.984 152 C 441.731 152, 450 144.065, 450 142.389 C 450 141.731, 441.900 133.182, 432 123.389 C 422.100 113.597, 414 105.082, 414 104.467 C 414 103.852, 415.125 102.292, 416.500 101 C 417.875 99.708, 419 98.295, 419 97.860 C 419 96.203, 412.712 90, 411.031 90 C 410.049 90, 397.271 102.181, 382.135 117.546 M 701.299 108.250 C 698.584 111.231, 696.777 114.830, 697.449 115.918 C 697.747 116.400, 700.696 119.138, 704.003 122.002 L 710.014 127.210 711.507 123.637 C 713.857 118.012, 713.474 110.794, 710.686 108.174 C 707.704 105.373, 703.892 105.404, 701.299 108.250 M 396.095 122.404 L 389.732 128.825 393.654 132.662 C 395.812 134.773, 398.303 137.625, 399.191 139 L 400.805 141.500 405.875 136.281 C 413.214 128.729, 413.389 126.913, 407.364 120.888 L 402.459 115.983 396.095 122.404 M 142.653 721.530 C 138.444 725.121, 135 728.287, 135 728.565 C 135 729.977, 138.409 734, 139.605 734 C 141.396 734, 158 723.808, 158 722.709 C 158 721.203, 152.797 715, 151.534 715 C 150.858 715, 146.862 717.938, 142.653 721.530 M 924.773 718.668 C 923.273 720.646, 922.282 722.648, 922.572 723.117 C 922.862 723.586, 926.114 725.800, 929.800 728.037 C 933.485 730.273, 937.226 732.602, 938.114 733.211 C 940.299 734.710, 942.771 733.598, 944.193 730.476 C 945.226 728.208, 945.074 727.631, 942.934 725.698 C 936.357 719.756, 930.084 715.004, 928.861 715.036 C 928.113 715.056, 926.273 716.691, 924.773 718.668 M 153.720 731.657 C 142.614 741.687, 143.449 740.510, 145.366 743.435 C 146.290 744.846, 147.706 746, 148.513 746 C 150.317 746, 167 735.858, 167 734.762 C 167 733.387, 162.555 727.065, 161.220 726.542 C 160.516 726.266, 157.141 728.567, 153.720 731.657 M 915.942 730.239 L 912.871 734.478 915.138 736.313 C 918.138 738.742, 930.599 746, 931.769 746 C 933.134 746, 936 742.557, 935.997 740.921 C 935.995 739.686, 920.881 726, 919.520 726 C 919.241 726, 917.631 727.907, 915.942 730.239 M 915.580 742.190 C 914.062 744.356, 913.989 744.362, 908.685 742.690 C 902.522 740.747, 894.859 740.491, 891.684 742.122 C 885.505 745.297, 881 751.745, 881 757.416 C 881 761.228, 885.465 767.378, 889.062 768.520 C 890.128 768.858, 891 769.569, 891 770.100 C 891 772.569, 844.113 815.461, 837.608 818.942 C 835.346 820.153, 834.655 819.990, 830.305 817.229 C 823.112 812.663, 818.205 811.469, 813.952 813.251 C 809.813 814.985, 803.995 819.719, 804.012 821.339 C 804.019 821.978, 805.641 823.547, 807.616 824.827 L 811.207 827.154 813.551 824.952 C 816.452 822.226, 819.964 822.148, 824.023 824.717 L 827.130 826.685 815.815 834.677 C 799.379 846.287, 796.760 847.974, 783.500 855.494 C 776.900 859.237, 769.327 863.831, 766.672 865.704 L 761.844 869.109 757.172 867.587 C 748.437 864.740, 736.346 863.856, 727.499 865.417 C 717.595 867.164, 703.872 872.097, 699.376 875.527 C 692.972 880.411, 691.248 887.615, 695.007 893.780 C 696.720 896.589, 696.791 897.143, 695.504 897.637 C 693.580 898.375, 693.599 900.324, 695.568 904.131 C 696.698 906.317, 697.604 906.979, 698.818 906.507 C 699.743 906.147, 700.833 905.773, 701.240 905.676 C 701.646 905.579, 705.092 912.686, 708.896 921.469 C 712.700 930.252, 716.344 937.615, 716.994 937.831 C 718.789 938.430, 726 934.876, 726 933.393 C 726 931.917, 718.028 912.963, 714.371 905.747 L 711.963 900.994 718.507 897.997 C 722.106 896.349, 725.262 895, 725.521 895 C 725.780 895, 729.481 893.370, 733.746 891.379 C 749.714 883.921, 755.310 881.883, 756.138 883.224 C 757.223 884.979, 756.557 885.441, 747.500 889.227 L 739.500 892.572 739.500 896.972 C 739.500 901.096, 739.704 901.426, 742.745 902.214 C 744.529 902.676, 746.754 904.222, 747.689 905.648 C 749.302 908.110, 749.294 908.312, 747.533 909.600 C 746.442 910.397, 744.609 910.706, 743.088 910.349 C 740.221 909.675, 730 902.432, 730 901.075 C 730 900.601, 729.373 899.973, 728.606 899.679 C 727.046 899.081, 721 903.654, 721 905.433 C 721 907.295, 730.162 915.625, 734.710 917.897 C 742.439 921.758, 753.418 920.098, 757.908 914.390 C 761.188 910.220, 760.785 903.632, 757.020 899.866 L 754.040 896.886 757.270 895.511 C 760.292 894.224, 760.561 894.276, 761.445 896.317 C 766.572 908.166, 770.059 915, 770.975 915 C 771.583 915, 773.885 914.079, 776.092 912.953 C 780.700 910.602, 780.723 910.987, 775.284 899.174 C 767.706 882.716, 765.893 877.685, 767.232 876.835 C 767.930 876.393, 768.837 876.024, 769.250 876.015 C 769.663 876.007, 770.900 875.100, 772 874 C 773.100 872.900, 774.338 872, 774.752 872 C 775.165 872, 776.587 874.043, 777.912 876.540 C 779.739 879.984, 780.040 881.360, 779.160 882.240 C 778.522 882.878, 778 884.629, 778 886.132 C 778 892.080, 790.105 895.930, 794.969 891.528 C 796.660 889.997, 797.009 888.859, 796.544 886.382 C 795.987 883.413, 796.260 883.026, 800.648 880.573 C 804.287 878.540, 805.539 878.234, 806.192 879.223 C 806.656 879.925, 808.427 882.892, 810.128 885.815 C 812.117 889.233, 813.711 890.941, 814.596 890.602 C 815.720 890.170, 815.748 890.431, 814.750 892.029 C 813.705 893.702, 813.915 894.370, 816.213 896.667 L 818.896 899.351 822.909 897.541 C 826.819 895.778, 830.659 895.780, 838.053 897.548 C 840.138 898.046, 840.827 897.676, 841.803 895.532 C 843.992 890.729, 843.372 889.180, 838.750 887.904 C 833.637 886.494, 826.523 886.214, 822.726 887.275 C 820.189 887.984, 820.052 887.890, 821.126 886.170 C 822.131 884.560, 821.033 882.164, 813.509 869.544 L 804.718 854.800 807.609 852.386 C 813.375 847.573, 813.613 847.577, 817.029 852.542 C 819.492 856.122, 819.915 857.397, 819.005 858.494 C 815.614 862.579, 821.137 868.333, 828.449 868.333 C 834.585 868.333, 837.378 865.840, 836.650 861.014 C 836.164 857.799, 836.462 857.262, 840.145 854.699 C 844.781 851.473, 845.372 851.714, 849.720 858.596 C 852.927 863.672, 855.069 864.098, 859.439 860.526 C 863.137 857.503, 863.100 857.418, 851.114 841.064 C 842.270 828.997, 841.093 827, 842.825 827 C 843.279 827, 847.065 824.075, 851.238 820.500 C 855.412 816.925, 859.090 814, 859.413 814 C 860.613 814, 859.929 816.016, 857.526 819.556 C 852.540 826.904, 853.250 833.378, 859.658 839.005 C 865.216 843.884, 874.320 842.809, 881.972 836.370 C 884.888 833.917, 885.486 833.774, 888.414 834.833 C 893.996 836.851, 895.952 836.359, 897.551 832.532 C 899.588 827.658, 899.458 827.306, 895.250 826.317 C 892.193 825.599, 891.442 824.938, 891.186 822.740 C 890.798 819.413, 886.654 816, 883.002 816 C 881.363 816, 879.182 817.090, 877.545 818.728 C 875.228 821.044, 874.907 822.020, 875.416 825.200 C 875.933 828.434, 875.674 829.167, 873.515 830.582 C 870.465 832.581, 866.386 831.792, 865.511 829.035 C 864.674 826.398, 866.425 823.253, 871.236 818.755 L 875.242 815.010 871.621 811.002 C 869.629 808.798, 868 806.616, 868 806.154 C 868 804.985, 877.869 796.772, 878.791 797.173 C 879.767 797.598, 891.138 809.882, 897.375 817.250 C 900.052 820.413, 902.526 822.999, 902.871 822.998 C 904.205 822.993, 910 817.370, 910 816.081 C 910 814.570, 901.839 804.793, 892.654 795.299 L 886.654 789.097 891.230 784.299 C 893.747 781.659, 896.933 778.154, 898.309 776.509 C 900.782 773.553, 900.835 773.540, 902.905 775.414 C 905.455 777.722, 905.627 780.841, 903.250 781.683 C 896.589 784.046, 896.019 791.407, 902.247 794.628 C 904.664 795.877, 907.230 796.054, 915.375 795.529 C 920.944 795.170, 927.300 794.562, 929.500 794.177 C 933.266 793.518, 933.518 793.254, 933.815 789.669 C 934.164 785.432, 932.559 782.719, 930.109 783.405 C 929.224 783.653, 925.688 784.158, 922.250 784.526 L 916 785.196 916 779.101 C 916 773.514, 915.702 772.675, 912.422 769.045 C 908.859 765.102, 908.851 765.073, 910.672 762.573 C 911.677 761.193, 913.103 760.049, 913.841 760.031 C 914.578 760.014, 920.575 764.837, 927.168 770.750 C 933.760 776.663, 939.906 781.624, 940.827 781.776 C 941.779 781.934, 943.767 780.454, 945.441 778.340 L 948.382 774.627 941.941 768.733 C 938.399 765.491, 932.229 760.107, 928.231 756.769 C 921.840 751.432, 921.127 750.506, 922.329 749.100 C 925.020 745.951, 925.014 745.093, 922.282 742.561 C 918.905 739.429, 917.565 739.355, 915.580 742.190 M 895.338 750.987 C 891.729 752.462, 891.309 756.009, 894.428 758.691 C 895.904 759.961, 897.443 761, 897.848 761 C 898.252 761, 900.526 759.021, 902.900 756.602 C 906.622 752.809, 906.961 752.131, 905.358 751.676 C 900.896 750.411, 897.347 750.167, 895.338 750.987 M 165.161 753.547 C 163.370 757.478, 163.711 758.478, 167.736 761.083 C 169.791 762.413, 171.625 764.289, 171.810 765.253 C 172.245 767.508, 169.278 768.655, 166.881 767.158 C 164.121 765.434, 162.602 765.730, 160 768.500 L 157.651 771 159.965 773.463 C 162.175 775.815, 162.204 776.039, 160.616 778.463 C 155.462 786.329, 150.297 774.406, 154.500 764.346 C 156.555 759.427, 156.514 759.303, 152.098 757.050 C 147.566 754.738, 146.913 755.161, 144.513 761.962 C 142.174 768.592, 142.528 778.711, 145.255 783.174 C 149.902 790.780, 158.162 794.090, 163.601 790.525 C 165.835 789.062, 166.614 788.991, 168.623 790.066 C 169.930 790.765, 171 791.745, 171 792.243 C 171 792.740, 168.525 795.409, 165.500 798.174 C 162.475 800.939, 160 803.865, 160 804.677 C 160 807.141, 165.747 812.241, 167.450 811.288 C 168.267 810.831, 174.377 805.345, 181.027 799.098 L 193.119 787.740 196.060 790.557 C 197.677 792.106, 199 793.898, 199 794.539 C 199 795.179, 193.375 800.985, 186.500 807.441 C 179.625 813.896, 174 819.553, 174 820.012 C 174 821.692, 179.226 826.999, 180.839 826.957 C 181.753 826.933, 188.125 821.566, 195 815.030 C 207.464 803.180, 207.506 803.151, 209.564 805.073 C 210.700 806.133, 212.162 807, 212.814 807 C 214.725 807, 214.269 807.845, 209.126 813.829 C 203.206 820.717, 202 822.944, 202 826.984 C 202 832.752, 206.433 838.597, 212.857 841.298 L 216.199 842.703 213.100 846.234 C 211.395 848.175, 210 850.183, 210 850.695 C 210 852.235, 215.488 857, 217.262 857 C 218.171 857, 220.171 855.376, 221.707 853.390 C 223.243 851.405, 228.289 845.306, 232.921 839.838 L 241.341 829.895 243.421 832.330 C 244.564 833.669, 249.887 837.564, 255.250 840.985 C 260.613 844.406, 265 847.523, 265 847.912 C 265 848.300, 264.318 849.491, 263.486 850.559 C 262.613 851.678, 262.083 851.912, 262.236 851.112 C 262.618 849.105, 254.569 843.197, 250.379 842.411 C 241.397 840.726, 234 846.968, 234 856.232 C 234 860.451, 234.455 861.455, 237.947 864.947 C 240.275 867.275, 243.557 869.342, 245.947 869.986 C 250.408 871.187, 250.696 871.697, 248.532 874.559 C 246.191 877.653, 246.747 879.347, 250.878 881.705 C 255.579 884.389, 256.203 884.009, 261.534 875.200 C 265.022 869.436, 265.609 868.925, 268.423 869.200 C 271.099 869.461, 271.500 869.886, 271.500 872.462 C 271.500 874.831, 270.651 875.994, 267.260 878.271 L 263.020 881.119 264.996 884.992 C 266.082 887.122, 267.462 889.167, 268.061 889.538 C 269.571 890.471, 278.181 884.410, 280.823 880.553 C 283.768 876.256, 283.777 869.257, 280.843 865.527 C 279.656 864.018, 276.959 862.045, 274.848 861.142 L 271.011 859.500 273.256 856.767 L 275.500 854.033 285.764 860.364 C 291.410 863.847, 296.251 866.918, 296.523 867.190 C 296.795 867.462, 292.738 874.310, 287.509 882.409 C 282.279 890.507, 278 897.517, 278 897.985 C 278 899.110, 284.338 903, 286.171 903 C 286.960 903, 291.828 896.459, 296.989 888.464 C 304.110 877.433, 306.749 874.085, 307.936 874.578 C 311.941 876.240, 312.819 876.063, 314.873 873.179 C 316.043 871.536, 317 869.907, 317 869.560 C 317 868.861, 303.326 859.977, 267 837.074 C 260.125 832.740, 252.475 827.383, 250 825.171 C 240.946 817.077, 220.723 800.432, 216.989 798 C 214.878 796.625, 208.136 789.987, 202.007 783.250 C 195.827 776.456, 190.081 771, 189.106 771 C 188.140 771, 186.274 772.144, 184.960 773.542 C 183.005 775.624, 182.779 776.417, 183.715 777.915 C 184.673 779.449, 184.337 780.250, 181.643 782.861 L 178.428 785.977 174.645 782.859 L 170.862 779.741 174.760 777.996 C 185.911 773.004, 185.610 761.148, 174.148 753.879 C 168.561 750.336, 166.656 750.265, 165.161 753.547 M 217.750 821.114 C 215.137 824.441, 213 827.769, 213 828.509 C 213 830.455, 217.879 834, 220.557 834 C 222.066 834, 224.403 832.219, 227.422 828.767 C 229.940 825.889, 232 823.243, 232 822.888 C 232 822.257, 223.491 814.968, 222.832 815.033 C 222.649 815.051, 220.363 817.787, 217.750 821.114 M 827.300 838.182 L 823.100 841.285 826.098 845.642 C 827.747 848.039, 829.443 850, 829.866 850 C 830.290 850, 832.489 848.576, 834.753 846.836 L 838.870 843.672 835.887 839.336 C 834.246 836.951, 832.588 835.018, 832.202 835.040 C 831.816 835.061, 829.610 836.476, 827.300 838.182 M 245.667 853.667 C 245.300 854.033, 245 855.372, 245 856.641 C 245 859.225, 249.296 862, 253.295 862 C 256.635 862, 261.038 857.036, 257.750 856.978 C 257.063 856.966, 255.375 856.076, 254 855 C 251.547 853.081, 246.982 852.351, 245.667 853.667 M 790 862.596 C 787.525 864.010, 785.333 865.334, 785.129 865.539 C 784.631 866.035, 789.914 875, 790.704 875 C 791.681 875, 800 869.976, 800 869.386 C 800 868.854, 794.945 859.989, 794.655 860.012 C 794.570 860.019, 792.475 861.181, 790 862.596 M 326.007 876.982 C 324.268 881.181, 325.068 882.379, 331.153 884.685 C 336.856 886.845, 338.126 889.013, 335.605 892.284 C 334.293 893.986, 334.066 893.971, 330.649 891.956 C 326.180 889.319, 323.415 890.061, 321.317 894.462 C 319.849 897.539, 319.892 898.202, 321.963 904.627 C 323.182 908.407, 325.681 914.754, 327.516 918.730 L 330.851 925.960 334.676 924.387 C 336.779 923.522, 338.873 922.461, 339.328 922.029 C 339.784 921.597, 338.975 918.910, 337.530 916.059 C 336.085 913.208, 334.486 909.778, 333.976 908.438 C 333.093 906.113, 333.283 906.162, 338.117 909.487 C 340.904 911.404, 344.919 913.440, 347.039 914.011 L 350.894 915.049 349.409 919.258 C 347.487 924.706, 345.299 928, 343.602 928 C 342.858 928, 341.958 929.461, 341.601 931.246 C 340.908 934.712, 342.684 937, 346.069 937 C 348.165 937, 350.395 939.552, 349.527 940.956 C 347.258 944.628, 339.527 939.529, 336.024 932.051 C 333.631 926.942, 333.530 926.866, 330.053 927.518 C 325.186 928.431, 324.744 928.844, 325.484 931.792 C 328.259 942.847, 342.687 953.801, 351.546 951.578 C 357.992 949.960, 361.607 941.928, 358.601 935.902 C 356.490 931.670, 356.524 931.337, 359.892 923.355 C 361.482 919.585, 364.221 913.021, 365.977 908.769 L 369.171 901.037 371.963 902.481 C 373.498 903.275, 378.267 904.866, 382.560 906.016 C 391.164 908.322, 392.250 908.787, 391.574 909.881 C 391.322 910.289, 388.443 910.181, 385.177 909.641 C 375.769 908.085, 371 911.200, 371 918.899 C 371 923.189, 374.991 928.440, 378.532 928.811 C 385.121 929.500, 389.135 931.065, 388.779 932.805 C 388.225 935.522, 381.770 934.826, 377.986 931.641 C 374.537 928.739, 369.926 928.179, 368.054 930.435 C 367.399 931.224, 367.007 933.311, 367.182 935.074 C 367.425 937.523, 368.286 938.698, 370.839 940.061 C 372.676 941.042, 377.247 944.806, 380.997 948.426 C 384.952 952.245, 388.378 954.779, 389.157 954.462 C 389.896 954.161, 391.363 952.737, 392.418 951.297 L 394.335 948.679 391.565 946.470 L 388.795 944.261 392.354 943.593 C 395.453 943.012, 399.124 939.936, 400.183 937.032 C 400.358 936.555, 401.782 936.414, 403.348 936.718 C 405.942 937.221, 406.137 937.548, 405.533 940.385 C 403.474 950.069, 403.404 949.741, 407.806 951.060 C 410.030 951.726, 412.446 952.039, 413.175 951.755 C 413.921 951.464, 416.413 943.973, 418.877 934.619 C 423.600 916.687, 423.469 916.873, 429.742 919.060 C 432.168 919.906, 432.678 920.561, 432.271 922.310 C 431.990 923.514, 430.014 930.949, 427.880 938.832 C 425.746 946.714, 424 953.716, 424 954.393 C 424 955.500, 433.682 958.717, 434.429 957.858 C 434.601 957.661, 436.729 949.850, 439.158 940.500 L 443.576 923.500 450.235 923.838 C 453.898 924.024, 460.627 924.707, 465.187 925.355 C 471.732 926.285, 473.550 926.904, 473.818 928.291 C 474.116 929.841, 473.645 929.957, 469.828 929.274 C 458.400 927.230, 452.102 929.092, 449.038 935.421 C 446.483 940.700, 446.460 944.602, 448.960 948.701 C 451.744 953.268, 456.341 955.362, 463.745 955.437 L 469.989 955.500 469.995 959.231 C 470 963.134, 469.855 963.028, 477.139 964.438 C 478.041 964.612, 479.186 964.473, 479.685 964.127 C 480.183 963.782, 481.402 958.100, 482.394 951.500 C 485.809 928.772, 485.692 929.160, 489.251 928.809 C 491.874 928.550, 492.527 927.948, 493.256 925.114 C 493.811 922.957, 493.755 921.355, 493.100 920.700 C 492.053 919.653, 467.652 915.728, 454.667 914.519 C 448.473 913.942, 430.120 909.281, 389.500 897.968 C 384 896.436, 374.325 892.954, 368 890.230 C 335.780 876.354, 330.084 874, 328.722 874 C 327.908 874, 326.687 875.342, 326.007 876.982 M 726 875.493 C 713.509 878.001, 705 882.455, 705 886.486 C 705 889.808, 705.997 892, 707.507 892 C 708.219 892, 712.730 890.193, 717.532 887.985 C 722.334 885.777, 730.733 882.080, 736.195 879.770 C 743.572 876.650, 745.660 875.387, 744.313 874.855 C 741.527 873.757, 733.203 874.047, 726 875.493 M 650.500 888.929 C 640.618 891.314, 636.216 899.716, 640.505 908.010 L 642.010 910.920 637.755 911.976 C 635.415 912.556, 631.925 913.450, 630 913.961 C 628.075 914.472, 622.225 915.378, 617 915.973 C 605.052 917.335, 592.425 918.896, 583.911 920.064 C 580.287 920.561, 566.112 921.227, 552.411 921.543 C 538.710 921.859, 526.938 922.302, 526.250 922.528 C 525.524 922.765, 525 924.629, 525 926.969 C 525 929.414, 525.492 931.084, 526.250 931.212 C 526.938 931.329, 532.450 931.442, 538.500 931.462 C 550.934 931.505, 554.022 933.213, 543.087 934 C 532.020 934.796, 527.543 939.742, 530.396 948.022 C 531.457 951.104, 531.454 952.201, 530.380 954.139 C 526.803 960.590, 530.403 970.191, 538.932 976.946 L 543.167 980.300 546.759 976.708 L 550.351 973.116 545.175 968.257 C 539.668 963.086, 538.815 960.383, 541.829 957.655 C 543.960 955.726, 552.492 955.369, 553.600 957.162 C 554.008 957.822, 553.320 959.132, 552.009 960.193 C 549.826 961.962, 549.773 962.282, 551.039 966.119 C 552.292 969.914, 552.574 970.137, 555.439 969.590 C 557.122 969.268, 559.962 967.436, 561.750 965.517 C 570.496 956.131, 560.829 944.438, 545.953 946.412 C 540.933 947.078, 539.405 946.422, 541.131 944.342 C 541.925 943.385, 545.079 943, 552.122 943 L 562 943 562 937.143 L 562 931.286 567.426 931.286 L 572.852 931.286 573.544 936.319 C 574.185 940.978, 574.041 941.494, 571.618 943.260 C 570.178 944.309, 569 945.827, 569 946.633 C 569 951.420, 576.070 958, 581.213 958 C 584.137 958, 587 955.180, 587 952.298 C 587 950.565, 587.797 950.176, 592.250 949.738 C 595.138 949.455, 597.778 949.387, 598.119 949.589 C 598.459 949.791, 599.054 953.170, 599.441 957.098 L 600.145 964.241 605.094 963.765 C 607.817 963.503, 610.310 963.023, 610.635 962.698 C 610.960 962.373, 610.348 954.320, 609.273 944.804 C 607.882 932.478, 607.634 927.289, 608.410 926.765 C 609.845 925.798, 616.995 925.785, 617.016 926.750 C 617.025 927.163, 617.924 935.150, 619.015 944.500 C 620.105 953.850, 620.998 961.640, 620.998 961.811 C 621.002 962.437, 630.526 960.742, 631.367 959.966 C 632.263 959.139, 629.548 931.517, 628.122 926.951 C 627.482 924.903, 627.670 924.375, 629.077 924.269 C 630.041 924.197, 632.893 923.437, 635.415 922.580 C 637.937 921.724, 641.793 920.737, 643.984 920.387 C 648.490 919.666, 649.706 921.050, 648.564 925.600 C 648.032 927.719, 647.485 928.087, 645.575 927.608 C 644.289 927.285, 641.831 927.512, 640.113 928.111 C 633.969 930.252, 635.134 937.831, 642.341 942.616 C 651.044 948.394, 661.126 954, 662.813 954 C 664.600 954, 668.007 949.292, 667.992 946.846 C 667.987 946.106, 664.643 943.720, 660.560 941.545 L 653.137 937.590 656.512 933.855 C 660.362 929.594, 661.633 924.795, 660.029 920.577 C 658.758 917.234, 659.306 916.487, 663.618 915.684 L 666.736 915.103 670.956 932.551 C 675.549 951.542, 675.132 950.940, 682.234 948.812 C 685.942 947.701, 686.164 947.424, 685.641 944.562 C 685.141 941.829, 680.266 921.458, 678.564 914.988 C 677.996 912.831, 678.347 912.308, 681.042 911.290 C 683.937 910.198, 684.127 909.847, 683.473 906.803 C 682.438 901.975, 682.120 901.721, 677.848 902.294 C 674.373 902.760, 673.805 902.523, 672.543 900.083 C 670.389 895.918, 663.593 890.258, 659.321 889.072 C 655.093 887.898, 654.791 887.893, 650.500 888.929 M 345.666 897.047 L 343.172 901.854 346.336 903.350 C 348.076 904.173, 350.714 905.148, 352.197 905.518 C 354.608 906.119, 355.058 905.796, 356.447 902.473 C 358.699 897.083, 358.504 896.610, 353.080 894.318 L 348.160 892.240 345.666 897.047 M 651.011 899.487 C 649.774 900.977, 650.170 904.250, 651.911 906.929 C 652.706 908.152, 653.643 908.165, 658.420 907.019 C 661.489 906.283, 664 905.391, 664 905.036 C 664 904.682, 662.516 902.954, 660.702 901.196 C 657.131 897.734, 653.061 897.017, 651.011 899.487 M 401.975 914.565 C 401.439 915.976, 401 917.974, 401 919.006 C 401 922.059, 399.405 922.232, 391.429 920.044 C 384.183 918.056, 381.304 918.064, 382.543 920.069 C 382.859 920.581, 384.254 921, 385.641 921 C 387.029 921, 391.165 922.317, 394.832 923.926 C 398.500 925.535, 403.287 926.998, 405.471 927.176 L 409.442 927.500 410.625 922.500 C 412.462 914.737, 412.380 914.430, 408.134 913.158 C 403.024 911.627, 403.099 911.610, 401.975 914.565 M 748.655 923.829 C 745.038 927.826, 747.832 934, 753.257 934 C 756.636 934, 759 931.565, 759 928.084 C 759 922.733, 752.184 919.929, 748.655 923.829 M 585.667 929.667 C 584.878 930.456, 584.774 937.247, 585.521 939.194 C 585.906 940.196, 587.411 940.414, 591.271 940.026 C 596.932 939.457, 596.650 939.918, 596.179 932 C 596.006 929.105, 595.831 929, 591.167 929 C 588.508 929, 586.033 929.300, 585.667 929.667 M 472 937.895 C 472 938.779, 470.769 938.938, 467.599 938.463 C 465.178 938.100, 462.302 938.087, 461.207 938.434 C 458.734 939.219, 457.814 942.363, 459.415 944.554 C 460.805 946.453, 466.696 946.768, 469.798 945.108 C 471.787 944.044, 473.782 938.449, 472.595 937.262 C 472.268 936.934, 472 937.219, 472 937.895 M 493.223 954.557 C 490.207 956.669, 490.063 963.428, 493 965 C 495.960 966.584, 495.461 968.294, 490.993 971.885 C 487.548 974.653, 487.137 975.387, 488.058 977.109 C 489.829 980.417, 491.745 980.370, 496.115 976.909 C 500.594 973.362, 504.974 965.365, 504.990 960.705 C 505.002 957.281, 500.989 953, 497.768 953 C 496.490 953, 494.445 953.701, 493.223 954.557" stroke="none" fill="#017cce" fill-rule="evenodd"></path><path d="M 553.545 181.044 C 556.270 184.093, 558.704 186.440, 558.952 186.258 C 559.201 186.077, 556.972 183.582, 553.998 180.714 L 548.590 175.500 553.545 181.044 M 534.453 210.870 C 536.627 213.142, 538.550 215, 538.726 215 C 539.766 215, 535.421 209.860, 533.181 208.440 C 531.127 207.138, 531.424 207.706, 534.453 210.870 M 469.492 208.987 C 469.828 209.530, 472.217 211.382, 474.801 213.103 L 479.500 216.232 475 212.158 C 470.745 208.307, 468.147 206.811, 469.492 208.987 M 493.500 229 C 496.766 232.300, 499.662 235, 499.937 235 C 500.212 235, 497.766 232.300, 494.500 229 C 491.234 225.700, 488.338 223, 488.063 223 C 487.788 223, 490.234 225.700, 493.500 229 M 427.945 255.563 C 414.359 265.181, 390.481 276.640, 378.500 279.291 C 365.708 282.122, 352.283 282.341, 330.076 280.080 C 288.686 275.865, 262.643 278.181, 242.500 287.867 C 233.354 292.265, 223.591 299.323, 218.619 305.132 C 215.437 308.849, 212.186 317.520, 213.487 318.820 C 213.804 319.138, 217.987 318.579, 222.782 317.580 C 240.063 313.977, 265.451 310, 271.174 310 C 274.412 310, 278.217 313.272, 277.413 315.365 C 276.660 317.328, 271.182 318.622, 251.320 321.531 C 221.530 325.892, 213.670 328.710, 203.743 338.587 C 195.139 347.148, 193.850 353.929, 199.762 359.539 C 202.050 361.711, 203.158 362.053, 206.507 361.621 C 208.711 361.337, 213.064 359.977, 216.181 358.599 C 227.012 353.809, 242.335 350.169, 270.756 345.635 C 273.035 345.271, 277 347.881, 277 349.745 C 277 352.047, 273.227 353.311, 255.078 357.087 C 221.666 364.038, 208.664 370.126, 198.876 383.400 C 196.648 386.422, 196 388.383, 196 392.108 C 196 396.336, 196.474 397.414, 199.934 401.052 C 204.242 405.580, 205.351 405.675, 214.500 402.296 C 240.304 392.765, 251.203 389.878, 269.047 387.849 C 277.572 386.880, 279.336 386.920, 280.082 388.098 C 280.570 388.869, 280.976 389.786, 280.985 390.135 C 281.031 392.036, 274.548 394.251, 260.847 397.017 C 227.293 403.790, 207.065 413.617, 204.113 424.580 C 202.290 431.352, 206.072 440.027, 212.611 444.068 C 218.092 447.456, 224.099 446.430, 239 439.564 C 250.431 434.296, 265.144 428.884, 275.637 426.087 C 294.321 421.106, 341.855 413, 352.379 413 C 360.456 413, 362.569 419.216, 355.247 421.434 C 351.335 422.619, 351.161 423.421, 350.359 444 C 349.676 461.495, 350.503 476, 352.183 476 C 355.118 476, 370.864 467.063, 375.674 462.667 C 387.385 451.964, 416.414 413.354, 428.428 392.500 C 444.328 364.904, 457.211 353.644, 496.500 333.005 C 510.077 325.873, 512 324.714, 512 323.667 C 512 322.202, 467.882 277.052, 459.863 270.310 C 455.813 266.906, 448.988 261.169, 444.695 257.560 C 440.402 253.952, 436.327 251, 435.640 251 C 434.953 251, 431.490 253.053, 427.945 255.563 M 649 263.871 C 649 265.113, 655.902 273.389, 657.361 273.896 C 657.987 274.114, 657.802 273.439, 656.949 272.396 C 651.468 265.697, 649 263.049, 649 263.871 M 473.223 270.908 C 476.676 274.157, 479.686 276.633, 479.914 276.410 C 480.417 275.918, 468.822 265.109, 467.723 265.045 C 467.296 265.020, 469.771 267.659, 473.223 270.908 M 769.250 289.566 C 763.339 293.109, 763.934 293.565, 770.250 290.333 C 776.568 287.101, 776.713 286.997, 774.917 287.009 C 774.138 287.015, 771.587 288.165, 769.250 289.566 M 789.670 291.454 C 791.186 293.353, 792.604 294.729, 792.822 294.511 C 793.442 293.891, 788.979 288, 787.889 288 C 787.353 288, 788.155 289.554, 789.670 291.454 M 521.808 318.641 C 522.362 319.676, 523.822 321.417, 525.054 322.511 C 526.285 323.605, 528.577 326.255, 530.146 328.400 C 531.716 330.545, 533 331.806, 533 331.202 C 533 330.598, 530.762 327.414, 528.026 324.127 C 522.678 317.700, 520.076 315.405, 521.808 318.641 M 490.500 372 C 492.150 372.420, 494.400 372.810, 495.500 372.866 C 497.146 372.951, 497.234 372.798, 496 372 C 495.175 371.467, 492.925 371.077, 491 371.134 L 487.500 371.237 490.500 372 M 593 374 C 593 374.588, 596.500 375, 601.500 375 C 606.500 375, 610 374.588, 610 374 C 610 373.412, 606.500 373, 601.500 373 C 596.500 373, 593 373.412, 593 374 M 694 416.192 C 694 416.389, 696.319 418.790, 699.153 421.526 C 701.987 424.262, 703.795 425.531, 703.170 424.347 C 702.188 422.487, 694 415.204, 694 416.192 M 341.146 509 C 341.115 510.925, 341.726 513.850, 342.504 515.500 C 344.059 518.800, 344.007 518.039, 342.096 509.500 L 341.201 505.500 341.146 509 M 728.693 533 C 729.063 534.375, 729.967 537.525, 730.702 540 C 731.876 543.957, 731.987 544.077, 731.621 540.994 C 731.392 539.066, 730.488 535.916, 729.613 533.994 C 728.736 532.070, 728.323 531.623, 728.693 533 M 833.395 548.500 C 833.396 556.200, 833.553 559.218, 833.743 555.206 C 833.934 551.195, 833.932 544.895, 833.741 541.206 C 833.549 537.518, 833.393 540.800, 833.395 548.500 M 716.026 578.787 C 703.912 584.791, 686.394 605.300, 665.022 638.500 C 632.785 688.578, 625.197 698.297, 608.243 711.227 C 594.776 721.496, 588.431 725.639, 574.274 733.407 C 567.549 737.096, 561.820 740.482, 561.542 740.932 C 561.264 741.382, 562.444 743.719, 564.164 746.125 C 577.667 765.014, 615.470 800.604, 629.761 807.882 L 634.023 810.052 643.261 804.675 C 659.997 794.935, 667.371 791.189, 678 787.023 C 696.076 779.939, 696.860 779.843, 743.500 779.029 C 784.452 778.315, 785.787 778.229, 797 775.573 C 811.974 772.026, 824.569 767.720, 834.500 762.752 C 850.632 754.681, 858.524 747.411, 857.818 741.271 C 857.525 738.716, 857.192 738.519, 853.557 738.742 C 851.388 738.876, 843.513 740.542, 836.057 742.446 C 828.601 744.350, 818.314 746.414, 813.197 747.034 C 805.013 748.025, 803.592 747.963, 801.385 746.517 C 796.272 743.167, 800.183 740.810, 815.736 737.869 C 828.072 735.536, 849.783 730.035, 858.289 727.087 C 876.459 720.790, 887.913 703.039, 879.195 694.687 C 877.644 693.201, 875.246 692, 873.831 692 C 872.423 692, 866.413 693.825, 860.476 696.055 C 846.125 701.445, 825.271 707.488, 815.680 709.035 C 806.998 710.436, 803 709.510, 803 706.099 C 803 703.797, 803.934 703.466, 824.500 698.473 C 857.244 690.524, 878.997 679.432, 883.641 668.317 C 885.303 664.339, 885.405 656.983, 883.846 653.562 C 882.233 650.020, 874.879 646.613, 870.587 647.418 C 868.746 647.763, 863.062 649.858, 857.956 652.072 C 831.915 663.367, 800.263 670.454, 798.332 665.422 C 797.272 662.661, 800.140 661.299, 815.850 657.103 C 832.520 652.651, 853.111 644.930, 862.271 639.697 C 874.157 632.906, 877.333 627.716, 874.989 618.909 C 872.548 609.738, 866.305 604.966, 856.849 605.044 C 850.899 605.093, 849.249 605.639, 833.500 612.770 C 813.260 621.936, 789.394 629.631, 770.629 633.043 C 755.051 635.875, 731.632 639, 725.988 639 C 717.566 639, 716.662 634.364, 724.415 630.935 L 728.853 628.971 728.376 615.736 C 727.898 602.500, 726.373 584.116, 725.313 578.814 C 724.610 575.299, 723.074 575.294, 716.026 578.787 M 795.500 618.117 C 791.660 619.321, 790.786 619.814, 793.072 619.487 C 797.709 618.824, 806.103 616.192, 803.500 616.217 C 802.400 616.228, 798.800 617.083, 795.500 618.117 M 780.500 621.523 C 777.750 622.230, 776.400 622.843, 777.500 622.885 C 778.600 622.927, 781.750 622.335, 784.500 621.570 C 790.777 619.824, 787.272 619.782, 780.500 621.523 M 196.761 695.500 C 195.651 701.510, 195.787 705.613, 197.054 704.346 C 197.634 703.766, 197.972 700.638, 197.804 697.396 C 197.506 691.607, 197.487 691.573, 196.761 695.500" stroke="none" fill="#ffc05f" fill-rule="evenodd"></path></svg><style>@media (prefers-color-scheme: light) { :root { filter: none; } }
@media (prefers-color-scheme: dark) { :root { filter: invert(100%); } }
</style></svg>